<svg xmlns="http://www.w3.org/2000/svg" xmlns:xlink="http://www.w3.org/1999/xlink" width="75" zoomAndPan="magnify" viewBox="0 0 56.25 74.999997" height="100" preserveAspectRatio="xMidYMid meet" version="1.0"><defs><clipPath id="c88650814d"><path d="M 3 58 L 53 58 L 53 71.972656 L 3 71.972656 Z M 3 58 " clip-rule="nonzero"/></clipPath><clipPath id="5d4ed7551e"><path d="M 25 66 L 26 66 L 26 71.972656 L 25 71.972656 Z M 25 66 " clip-rule="nonzero"/></clipPath><clipPath id="67523926aa"><path d="M 23 66 L 25 66 L 25 71.972656 L 23 71.972656 Z M 23 66 " clip-rule="nonzero"/></clipPath><clipPath id="05ac490688"><path d="M 26 66 L 28 66 L 28 71.972656 L 26 71.972656 Z M 26 66 " clip-rule="nonzero"/></clipPath><clipPath id="6af9489898"><path d="M 27 66 L 29 66 L 29 71.972656 L 27 71.972656 Z M 27 66 " clip-rule="nonzero"/></clipPath><clipPath id="7bc420c0e3"><path d="M 29 66 L 31 66 L 31 71.972656 L 29 71.972656 Z M 29 66 " clip-rule="nonzero"/></clipPath><clipPath id="b947eb18bb"><path d="M 30 66 L 32 66 L 32 71.972656 L 30 71.972656 Z M 30 66 " clip-rule="nonzero"/></clipPath><clipPath id="9ff6df7a4f"><path d="M 31 66 L 33 66 L 33 71.972656 L 31 71.972656 Z M 31 66 " clip-rule="nonzero"/></clipPath><clipPath id="c3caaca022"><path d="M 33 66 L 35 66 L 35 71.972656 L 33 71.972656 Z M 33 66 " clip-rule="nonzero"/></clipPath><clipPath id="fa4812701f"><path d="M 34 66 L 36 66 L 36 71.972656 L 34 71.972656 Z M 34 66 " clip-rule="nonzero"/></clipPath><clipPath id="95a78d31b5"><path d="M 36 66 L 37 66 L 37 71.972656 L 36 71.972656 Z M 36 66 " clip-rule="nonzero"/></clipPath><clipPath id="871119359e"><path d="M 22 66 L 24 66 L 24 71.972656 L 22 71.972656 Z M 22 66 " clip-rule="nonzero"/></clipPath><clipPath id="712fa428c3"><path d="M 20 66 L 22 66 L 22 71.972656 L 20 71.972656 Z M 20 66 " clip-rule="nonzero"/></clipPath><clipPath id="6f44c26362"><path d="M 19 66 L 21 66 L 21 71.972656 L 19 71.972656 Z M 19 66 " clip-rule="nonzero"/></clipPath><clipPath id="4c083335ef"><path d="M 5 34 L 54.796875 34 L 54.796875 49 L 5 49 Z M 5 34 " clip-rule="nonzero"/></clipPath><clipPath id="afcbd0d9b8"><path d="M 5 25 L 54.796875 25 L 54.796875 43 L 5 43 Z M 5 25 " clip-rule="nonzero"/></clipPath><clipPath id="8849949cd8"><path d="M 53 36 L 54.796875 36 L 54.796875 43 L 53 43 Z M 53 36 " clip-rule="nonzero"/></clipPath><clipPath id="6e8d58eafc"><path d="M 0.769531 26 L 51 26 L 51 41 L 0.769531 41 Z M 0.769531 26 " clip-rule="nonzero"/></clipPath><clipPath id="c52f5299e5"><path d="M 0.769531 17 L 51 17 L 51 36 L 0.769531 36 Z M 0.769531 17 " clip-rule="nonzero"/></clipPath><clipPath id="73e5a634c9"><path d="M 5 12 L 54.796875 12 L 54.796875 27 L 5 27 Z M 5 12 " clip-rule="nonzero"/></clipPath><clipPath id="c44f3a10ba"><path d="M 5 3.140625 L 54.796875 3.140625 L 54.796875 21 L 5 21 Z M 5 3.140625 " clip-rule="nonzero"/></clipPath><clipPath id="c6c02f6bf7"><path d="M 53 14 L 54.796875 14 L 54.796875 20 L 53 20 Z M 53 14 " clip-rule="nonzero"/></clipPath></defs><g clip-path="url(#c88650814d)"><path fill="#f89e19" d="M 52.84375 63.300781 L 52.84375 58.136719 L 3.625 58.136719 L 3.625 63.300781 C 3.625 68.089844 14.644531 71.96875 28.234375 71.96875 C 41.824219 71.96875 52.84375 68.089844 52.84375 63.300781 " fill-opacity="1" fill-rule="nonzero"/></g><path fill="#f5c116" d="M 28.234375 66.421875 C 14.644531 66.421875 3.625 62.539062 3.625 57.753906 C 3.625 52.96875 14.644531 49.085938 28.234375 49.085938 C 41.824219 49.085938 52.84375 52.96875 52.84375 57.753906 C 52.84375 62.539062 41.824219 66.421875 28.234375 66.421875 " fill-opacity="1" fill-rule="nonzero"/><path fill="#f89e19" d="M 29.714844 61.136719 C 30.703125 61.074219 31.503906 60.910156 32.125 60.652344 C 32.742188 60.398438 33.054688 60.09375 33.054688 59.746094 C 33.054688 59.4375 32.792969 59.167969 32.273438 58.941406 C 31.75 58.71875 30.902344 58.542969 29.714844 58.425781 L 29.714844 61.136719 M 26.851562 53.738281 C 26.074219 53.828125 25.457031 53.988281 24.996094 54.210938 C 24.535156 54.433594 24.304688 54.679688 24.304688 54.949219 C 24.304688 55.195312 24.515625 55.421875 24.933594 55.632812 C 25.359375 55.84375 25.992188 56.015625 26.851562 56.144531 L 26.851562 53.738281 M 26.851562 61.039062 L 26.851562 58.125 C 24.273438 57.867188 22.378906 57.472656 21.175781 56.945312 C 19.96875 56.421875 19.367188 55.78125 19.367188 55.03125 C 19.367188 54.269531 20.046875 53.632812 21.410156 53.117188 C 22.773438 52.597656 24.585938 52.300781 26.851562 52.222656 L 26.851562 51.535156 L 29.714844 51.535156 L 29.714844 52.222656 C 31.808594 52.308594 33.46875 52.5625 34.710938 52.976562 C 35.949219 53.390625 36.738281 53.945312 37.078125 54.640625 L 32.082031 54.871094 C 31.78125 54.324219 30.988281 53.953125 29.714844 53.757812 L 29.714844 56.476562 C 32.875 56.777344 35.03125 57.171875 36.171875 57.648438 C 37.320312 58.128906 37.890625 58.746094 37.890625 59.496094 C 37.890625 60.335938 37.171875 61.042969 35.730469 61.617188 C 34.285156 62.191406 32.28125 62.542969 29.714844 62.675781 L 29.714844 63.976562 L 26.851562 63.976562 L 26.851562 62.707031 C 24.574219 62.613281 22.722656 62.3125 21.300781 61.8125 C 19.878906 61.308594 18.972656 60.605469 18.578125 59.691406 L 23.730469 59.496094 C 23.945312 59.867188 24.335938 60.1875 24.917969 60.457031 C 25.496094 60.722656 26.140625 60.917969 26.851562 61.039062 " fill-opacity="1" fill-rule="nonzero"/><path fill="#e98b1b" d="M 50.0625 66.773438 L 50.058594 66.761719 L 50.058594 62.085938 C 50.351562 61.886719 50.625 61.6875 50.875 61.484375 L 50.875 66.113281 C 50.628906 66.339844 50.359375 66.558594 50.0625 66.773438 " fill-opacity="1" fill-rule="nonzero"/><path fill="#e98b1b" d="M 48.839844 67.550781 C 48.738281 67.523438 48.667969 67.484375 48.667969 67.4375 L 48.667969 62.910156 C 48.957031 62.761719 49.226562 62.605469 49.484375 62.449219 L 49.484375 67.164062 C 49.277344 67.296875 49.0625 67.425781 48.839844 67.550781 " fill-opacity="1" fill-rule="nonzero"/><path fill="#e98b1b" d="M 51.445312 65.535156 L 51.445312 60.960938 C 51.773438 60.632812 52.046875 60.296875 52.261719 59.953125 L 52.261719 64.222656 C 52.085938 64.671875 51.8125 65.109375 51.445312 65.535156 " fill-opacity="1" fill-rule="nonzero"/><path fill="#e98b1b" d="M 47.488281 68.234375 C 47.367188 68.210938 47.277344 68.167969 47.277344 68.113281 L 47.277344 63.570312 C 47.5625 63.449219 47.832031 63.324219 48.097656 63.195312 L 48.097656 67.945312 C 47.898438 68.042969 47.699219 68.140625 47.488281 68.234375 " fill-opacity="1" fill-rule="nonzero"/><path fill="#e98b1b" d="M 45.96875 68.871094 C 45.925781 68.847656 45.890625 68.820312 45.890625 68.789062 L 45.890625 64.113281 C 46.171875 64.015625 46.441406 63.910156 46.707031 63.804688 L 46.707031 68.578125 C 46.46875 68.675781 46.222656 68.773438 45.96875 68.871094 " fill-opacity="1" fill-rule="nonzero"/><path fill="#e98b1b" d="M 44.503906 69.378906 L 44.503906 64.578125 C 44.78125 64.496094 45.054688 64.40625 45.320312 64.316406 L 45.320312 69.105469 C 45.054688 69.199219 44.78125 69.292969 44.503906 69.378906 " fill-opacity="1" fill-rule="nonzero"/><path fill="#e98b1b" d="M 43.113281 69.785156 L 43.113281 64.984375 C 43.390625 64.90625 43.664062 64.832031 43.929688 64.757812 L 43.929688 69.554688 C 43.664062 69.632812 43.390625 69.710938 43.113281 69.785156 " fill-opacity="1" fill-rule="nonzero"/><path fill="#e98b1b" d="M 41.726562 70.144531 L 41.726562 65.328125 C 42.003906 65.265625 42.273438 65.195312 42.542969 65.128906 L 42.542969 69.9375 C 42.273438 70.007812 42.003906 70.078125 41.726562 70.144531 " fill-opacity="1" fill-rule="nonzero"/><path fill="#e98b1b" d="M 40.339844 70.445312 L 40.339844 65.625 C 40.613281 65.570312 40.886719 65.515625 41.152344 65.457031 L 41.152344 70.269531 C 40.886719 70.332031 40.613281 70.390625 40.339844 70.445312 " fill-opacity="1" fill-rule="nonzero"/><path fill="#e98b1b" d="M 38.953125 70.707031 L 38.953125 65.882812 C 39.226562 65.835938 39.496094 65.789062 39.765625 65.734375 L 39.765625 70.558594 C 39.496094 70.609375 39.222656 70.660156 38.953125 70.707031 " fill-opacity="1" fill-rule="nonzero"/><path fill="#e98b1b" d="M 37.5625 70.929688 L 37.5625 66.101562 C 37.835938 66.0625 38.109375 66.019531 38.378906 65.976562 L 38.378906 70.800781 C 38.109375 70.847656 37.835938 70.890625 37.5625 70.929688 " fill-opacity="1" fill-rule="nonzero"/><path fill="#e98b1b" d="M 18.90625 70.929688 C 18.632812 70.890625 18.359375 70.847656 18.089844 70.800781 L 18.089844 65.976562 C 18.359375 66.019531 18.632812 66.0625 18.90625 66.101562 L 18.90625 70.929688 " fill-opacity="1" fill-rule="nonzero"/><path fill="#e98b1b" d="M 17.515625 70.707031 C 17.242188 70.660156 16.96875 70.609375 16.703125 70.558594 L 16.703125 65.734375 C 16.972656 65.789062 17.242188 65.835938 17.515625 65.882812 L 17.515625 70.707031 " fill-opacity="1" fill-rule="nonzero"/><path fill="#e98b1b" d="M 16.128906 70.445312 C 15.855469 70.390625 15.582031 70.332031 15.3125 70.269531 L 15.3125 65.457031 C 15.582031 65.515625 15.855469 65.570312 16.128906 65.625 L 16.128906 70.445312 " fill-opacity="1" fill-rule="nonzero"/><path fill="#e98b1b" d="M 14.742188 70.144531 C 14.464844 70.078125 14.191406 70.007812 13.925781 69.9375 L 13.925781 65.128906 C 14.191406 65.195312 14.464844 65.265625 14.742188 65.328125 L 14.742188 70.144531 " fill-opacity="1" fill-rule="nonzero"/><path fill="#e98b1b" d="M 13.351562 69.785156 C 13.074219 69.710938 12.804688 69.632812 12.535156 69.554688 L 12.535156 64.757812 C 12.800781 64.832031 13.074219 64.90625 13.351562 64.984375 L 13.351562 69.785156 " fill-opacity="1" fill-rule="nonzero"/><g clip-path="url(#5d4ed7551e)"><path fill="#e98b1b" d="M 25.847656 71.542969 C 25.574219 71.535156 25.304688 71.519531 25.03125 71.507812 L 25.03125 66.671875 C 25.304688 66.683594 25.574219 66.695312 25.847656 66.707031 L 25.847656 71.542969 " fill-opacity="1" fill-rule="nonzero"/></g><g clip-path="url(#67523926aa)"><path fill="#e98b1b" d="M 24.460938 71.480469 C 24.183594 71.46875 23.914062 71.449219 23.644531 71.429688 L 23.644531 66.59375 C 23.914062 66.613281 24.183594 66.632812 24.460938 66.644531 L 24.460938 71.480469 " fill-opacity="1" fill-rule="nonzero"/></g><g clip-path="url(#05ac490688)"><path fill="#e98b1b" d="M 27.234375 71.578125 C 26.964844 71.570312 26.691406 71.566406 26.421875 71.558594 L 26.421875 66.722656 C 26.691406 66.726562 26.964844 66.734375 27.234375 66.738281 L 27.234375 71.578125 " fill-opacity="1" fill-rule="nonzero"/></g><g clip-path="url(#6af9489898)"><path fill="#e98b1b" d="M 28.234375 71.585938 C 28.089844 71.585938 27.949219 71.582031 27.808594 71.582031 L 27.808594 66.742188 C 27.949219 66.746094 28.089844 66.746094 28.234375 66.746094 C 28.363281 66.746094 28.496094 66.746094 28.625 66.746094 L 28.625 71.582031 C 28.496094 71.582031 28.363281 71.585938 28.234375 71.585938 " fill-opacity="1" fill-rule="nonzero"/></g><g clip-path="url(#7bc420c0e3)"><path fill="#e98b1b" d="M 29.199219 71.578125 L 29.199219 66.738281 C 29.46875 66.734375 29.742188 66.730469 30.011719 66.722656 L 30.011719 71.558594 C 29.742188 71.566406 29.46875 71.570312 29.199219 71.578125 " fill-opacity="1" fill-rule="nonzero"/></g><g clip-path="url(#b947eb18bb)"><path fill="#e98b1b" d="M 30.585938 71.542969 L 30.585938 66.707031 C 30.859375 66.695312 31.128906 66.683594 31.402344 66.671875 L 31.402344 71.511719 C 31.128906 71.523438 30.859375 71.535156 30.585938 71.542969 " fill-opacity="1" fill-rule="nonzero"/></g><g clip-path="url(#9ff6df7a4f)"><path fill="#e98b1b" d="M 31.972656 71.484375 L 31.972656 66.648438 C 32.246094 66.632812 32.515625 66.613281 32.789062 66.597656 L 32.789062 71.433594 C 32.515625 71.449219 32.246094 71.46875 31.972656 71.484375 " fill-opacity="1" fill-rule="nonzero"/></g><g clip-path="url(#c3caaca022)"><path fill="#e98b1b" d="M 33.359375 71.390625 L 33.359375 66.558594 C 33.636719 66.535156 33.90625 66.515625 34.175781 66.492188 L 34.175781 71.324219 C 33.910156 71.347656 33.636719 71.371094 33.359375 71.390625 " fill-opacity="1" fill-rule="nonzero"/></g><g clip-path="url(#fa4812701f)"><path fill="#e98b1b" d="M 34.75 71.269531 L 34.75 66.4375 C 35.023438 66.410156 35.296875 66.386719 35.566406 66.355469 L 35.566406 71.1875 C 35.296875 71.21875 35.023438 71.242188 34.75 71.269531 " fill-opacity="1" fill-rule="nonzero"/></g><g clip-path="url(#95a78d31b5)"><path fill="#e98b1b" d="M 36.136719 71.117188 L 36.136719 66.289062 C 36.410156 66.253906 36.683594 66.222656 36.953125 66.183594 L 36.953125 71.015625 C 36.683594 71.050781 36.410156 71.085938 36.136719 71.117188 " fill-opacity="1" fill-rule="nonzero"/></g><g clip-path="url(#871119359e)"><path fill="#e98b1b" d="M 23.070312 71.390625 C 22.796875 71.367188 22.527344 71.347656 22.253906 71.324219 L 22.253906 66.488281 C 22.527344 66.511719 22.796875 66.535156 23.070312 66.554688 L 23.070312 71.390625 " fill-opacity="1" fill-rule="nonzero"/></g><g clip-path="url(#712fa428c3)"><path fill="#e98b1b" d="M 21.683594 71.265625 C 21.410156 71.242188 21.136719 71.210938 20.867188 71.183594 L 20.867188 66.351562 C 21.136719 66.382812 21.410156 66.40625 21.683594 66.433594 L 21.683594 71.265625 " fill-opacity="1" fill-rule="nonzero"/></g><g clip-path="url(#6f44c26362)"><path fill="#e98b1b" d="M 20.292969 71.113281 C 20.019531 71.082031 19.75 71.046875 19.476562 71.007812 L 19.476562 66.179688 C 19.746094 66.214844 20.019531 66.25 20.292969 66.285156 L 20.292969 71.113281 " fill-opacity="1" fill-rule="nonzero"/></g><path fill="#e98b1b" d="M 11.964844 69.378906 C 11.683594 69.292969 11.414062 69.199219 11.148438 69.105469 L 11.148438 64.316406 C 11.414062 64.40625 11.6875 64.496094 11.964844 64.578125 L 11.964844 69.378906 " fill-opacity="1" fill-rule="nonzero"/><path fill="#e98b1b" d="M 10.5 68.871094 C 10.246094 68.773438 10 68.675781 9.757812 68.578125 L 9.757812 63.804688 C 10.023438 63.910156 10.296875 64.015625 10.574219 64.113281 L 10.574219 68.789062 C 10.574219 68.820312 10.542969 68.847656 10.5 68.871094 " fill-opacity="1" fill-rule="nonzero"/><path fill="#e98b1b" d="M 8.976562 68.234375 C 8.769531 68.140625 8.566406 68.042969 8.371094 67.945312 L 8.371094 63.195312 C 8.636719 63.324219 8.90625 63.449219 9.1875 63.570312 L 9.1875 68.113281 C 9.1875 68.167969 9.097656 68.210938 8.976562 68.234375 " fill-opacity="1" fill-rule="nonzero"/><path fill="#e98b1b" d="M 7.628906 67.550781 C 7.40625 67.425781 7.1875 67.296875 6.984375 67.164062 L 6.984375 62.449219 C 7.242188 62.605469 7.511719 62.761719 7.800781 62.910156 L 7.800781 67.4375 C 7.800781 67.484375 7.730469 67.523438 7.628906 67.550781 " fill-opacity="1" fill-rule="nonzero"/><path fill="#e98b1b" d="M 6.40625 66.773438 C 6.105469 66.558594 5.839844 66.339844 5.59375 66.113281 L 5.59375 61.484375 C 5.84375 61.6875 6.117188 61.886719 6.410156 62.085938 L 6.410156 66.761719 L 6.40625 66.773438 " fill-opacity="1" fill-rule="nonzero"/><path fill="#e98b1b" d="M 5.023438 65.535156 C 4.652344 65.109375 4.382812 64.671875 4.207031 64.222656 L 4.207031 59.953125 C 4.421875 60.296875 4.695312 60.632812 5.023438 60.960938 L 5.023438 65.535156 " fill-opacity="1" fill-rule="nonzero"/><path fill="#f89e19" d="M 53.808594 56.089844 L 53.808594 50.921875 L 4.585938 50.921875 L 4.585938 56.089844 C 4.585938 60.875 15.605469 64.757812 29.199219 64.757812 C 42.789062 64.757812 53.808594 60.875 53.808594 56.089844 " fill-opacity="1" fill-rule="nonzero"/><path fill="#f5c116" d="M 29.199219 59.207031 C 15.605469 59.207031 4.585938 55.328125 4.585938 50.539062 C 4.585938 45.753906 15.605469 41.875 29.199219 41.875 C 42.789062 41.875 53.808594 45.753906 53.808594 50.539062 C 53.808594 55.328125 42.789062 59.207031 29.199219 59.207031 " fill-opacity="1" fill-rule="nonzero"/><path fill="#f89e19" d="M 30.679688 53.921875 C 31.664062 53.859375 32.46875 53.695312 33.085938 53.441406 C 33.707031 53.183594 34.015625 52.878906 34.015625 52.53125 C 34.015625 52.222656 33.753906 51.953125 33.234375 51.730469 C 32.714844 51.503906 31.863281 51.328125 30.679688 51.210938 L 30.679688 53.921875 M 27.816406 46.523438 C 27.039062 46.617188 26.417969 46.773438 25.957031 46.996094 C 25.496094 47.21875 25.269531 47.464844 25.269531 47.734375 C 25.269531 47.980469 25.476562 48.210938 25.898438 48.417969 C 26.320312 48.628906 26.957031 48.800781 27.816406 48.929688 L 27.816406 46.523438 M 27.816406 53.828125 L 27.816406 50.914062 C 25.234375 50.652344 23.34375 50.257812 22.136719 49.730469 C 20.933594 49.207031 20.332031 48.570312 20.332031 47.816406 C 20.332031 47.054688 21.011719 46.417969 22.375 45.902344 C 23.734375 45.382812 25.550781 45.085938 27.816406 45.007812 L 27.816406 44.320312 L 30.679688 44.320312 L 30.679688 45.007812 C 32.769531 45.09375 34.433594 45.347656 35.675781 45.761719 C 36.914062 46.175781 37.703125 46.730469 38.042969 47.425781 L 33.046875 47.660156 C 32.746094 47.109375 31.953125 46.738281 30.679688 46.546875 L 30.679688 49.265625 C 33.839844 49.566406 35.992188 49.957031 37.136719 50.433594 C 38.28125 50.914062 38.851562 51.53125 38.851562 52.28125 C 38.851562 53.121094 38.132812 53.828125 36.695312 54.402344 C 35.25 54.976562 33.246094 55.332031 30.679688 55.460938 L 30.679688 56.761719 L 27.816406 56.761719 L 27.816406 55.492188 C 25.535156 55.398438 23.6875 55.101562 22.265625 54.597656 C 20.84375 54.09375 19.9375 53.390625 19.539062 52.476562 L 24.695312 52.28125 C 24.90625 52.652344 25.300781 52.972656 25.878906 53.242188 C 26.457031 53.511719 27.101562 53.703125 27.816406 53.828125 " fill-opacity="1" fill-rule="nonzero"/><path fill="#e98b1b" d="M 51.027344 59.5625 L 51.019531 59.546875 L 51.019531 54.871094 C 51.3125 54.675781 51.585938 54.472656 51.835938 54.269531 L 51.835938 58.902344 C 51.589844 59.125 51.324219 59.34375 51.027344 59.5625 " fill-opacity="1" fill-rule="nonzero"/><path fill="#e98b1b" d="M 49.800781 60.339844 C 49.703125 60.308594 49.632812 60.273438 49.632812 60.222656 L 49.632812 55.699219 C 49.917969 55.546875 50.1875 55.394531 50.449219 55.234375 L 50.449219 59.949219 C 50.242188 60.082031 50.027344 60.210938 49.800781 60.339844 " fill-opacity="1" fill-rule="nonzero"/><path fill="#e98b1b" d="M 52.410156 58.320312 L 52.410156 53.75 C 52.738281 53.421875 53.007812 53.082031 53.222656 52.738281 L 53.222656 57.007812 C 53.046875 57.457031 52.777344 57.898438 52.410156 58.320312 " fill-opacity="1" fill-rule="nonzero"/><path fill="#e98b1b" d="M 48.453125 61.023438 C 48.332031 60.996094 48.242188 60.953125 48.242188 60.898438 L 48.242188 56.355469 C 48.527344 56.234375 48.796875 56.109375 49.058594 55.980469 L 49.058594 60.730469 C 48.863281 60.832031 48.660156 60.925781 48.453125 61.023438 " fill-opacity="1" fill-rule="nonzero"/><path fill="#e98b1b" d="M 46.933594 61.65625 C 46.886719 61.632812 46.855469 61.605469 46.855469 61.574219 L 46.855469 56.902344 C 47.132812 56.800781 47.40625 56.695312 47.671875 56.589844 L 47.671875 61.363281 C 47.429688 61.460938 47.183594 61.558594 46.933594 61.65625 " fill-opacity="1" fill-rule="nonzero"/><path fill="#e98b1b" d="M 45.46875 62.164062 L 45.46875 57.367188 C 45.746094 57.28125 46.019531 57.191406 46.285156 57.101562 L 46.285156 61.894531 C 46.019531 61.984375 45.746094 62.078125 45.46875 62.164062 " fill-opacity="1" fill-rule="nonzero"/><path fill="#e98b1b" d="M 44.078125 62.574219 L 44.078125 57.769531 C 44.355469 57.695312 44.628906 57.617188 44.894531 57.542969 L 44.894531 62.339844 C 44.628906 62.417969 44.355469 62.496094 44.078125 62.574219 " fill-opacity="1" fill-rule="nonzero"/><path fill="#e98b1b" d="M 42.691406 62.929688 L 42.691406 58.113281 C 42.96875 58.050781 43.238281 57.984375 43.507812 57.914062 L 43.507812 62.726562 C 43.238281 62.792969 42.96875 62.863281 42.691406 62.929688 " fill-opacity="1" fill-rule="nonzero"/><path fill="#e98b1b" d="M 41.300781 63.230469 L 41.300781 58.414062 C 41.574219 58.355469 41.851562 58.300781 42.117188 58.242188 L 42.117188 63.058594 C 41.851562 63.117188 41.574219 63.175781 41.300781 63.230469 " fill-opacity="1" fill-rule="nonzero"/><path fill="#e98b1b" d="M 39.914062 63.492188 L 39.914062 58.671875 C 40.1875 58.625 40.460938 58.574219 40.730469 58.523438 L 40.730469 63.34375 C 40.460938 63.398438 40.1875 63.445312 39.914062 63.492188 " fill-opacity="1" fill-rule="nonzero"/><path fill="#e98b1b" d="M 38.523438 63.714844 L 38.523438 58.886719 C 38.800781 58.847656 39.070312 58.804688 39.339844 58.761719 L 39.339844 63.589844 C 39.070312 63.632812 38.800781 63.675781 38.523438 63.714844 " fill-opacity="1" fill-rule="nonzero"/><path fill="#e98b1b" d="M 19.867188 63.714844 C 19.59375 63.675781 19.324219 63.632812 19.054688 63.589844 L 19.054688 58.761719 C 19.324219 58.804688 19.59375 58.847656 19.867188 58.886719 L 19.867188 63.714844 " fill-opacity="1" fill-rule="nonzero"/><path fill="#e98b1b" d="M 18.480469 63.492188 C 18.207031 63.445312 17.933594 63.398438 17.664062 63.34375 L 17.664062 58.523438 C 17.933594 58.574219 18.207031 58.625 18.480469 58.671875 L 18.480469 63.492188 " fill-opacity="1" fill-rule="nonzero"/><path fill="#e98b1b" d="M 17.09375 63.230469 C 16.816406 63.175781 16.542969 63.117188 16.277344 63.058594 L 16.277344 58.242188 C 16.542969 58.300781 16.816406 58.355469 17.09375 58.414062 L 17.09375 63.230469 " fill-opacity="1" fill-rule="nonzero"/><path fill="#e98b1b" d="M 15.703125 62.929688 C 15.425781 62.863281 15.15625 62.792969 14.886719 62.726562 L 14.886719 57.914062 C 15.15625 57.984375 15.425781 58.050781 15.703125 58.113281 L 15.703125 62.929688 " fill-opacity="1" fill-rule="nonzero"/><path fill="#e98b1b" d="M 14.316406 62.574219 C 14.039062 62.496094 13.765625 62.417969 13.5 62.339844 L 13.5 57.542969 C 13.765625 57.617188 14.039062 57.695312 14.316406 57.769531 L 14.316406 62.574219 " fill-opacity="1" fill-rule="nonzero"/><path fill="#e98b1b" d="M 26.808594 64.328125 C 26.535156 64.320312 26.265625 64.308594 25.992188 64.292969 L 25.992188 59.457031 C 26.265625 59.472656 26.535156 59.480469 26.808594 59.492188 L 26.808594 64.328125 " fill-opacity="1" fill-rule="nonzero"/><path fill="#e98b1b" d="M 25.421875 64.269531 C 25.148438 64.253906 24.878906 64.234375 24.605469 64.214844 L 24.605469 59.378906 C 24.878906 59.398438 25.148438 59.417969 25.421875 59.433594 L 25.421875 64.269531 " fill-opacity="1" fill-rule="nonzero"/><path fill="#e98b1b" d="M 28.199219 64.363281 C 27.925781 64.359375 27.652344 64.351562 27.382812 64.34375 L 27.382812 59.507812 C 27.652344 59.515625 27.925781 59.519531 28.199219 59.523438 L 28.199219 64.363281 " fill-opacity="1" fill-rule="nonzero"/><path fill="#e98b1b" d="M 29.199219 64.371094 C 29.054688 64.371094 28.914062 64.367188 28.773438 64.367188 L 28.773438 59.527344 C 28.914062 59.53125 29.054688 59.535156 29.199219 59.535156 C 29.328125 59.535156 29.457031 59.53125 29.589844 59.53125 L 29.589844 64.367188 C 29.457031 64.367188 29.328125 64.371094 29.199219 64.371094 " fill-opacity="1" fill-rule="nonzero"/><path fill="#e98b1b" d="M 30.160156 64.363281 L 30.160156 59.523438 C 30.433594 59.519531 30.707031 59.515625 30.976562 59.507812 L 30.976562 64.347656 C 30.707031 64.351562 30.433594 64.359375 30.160156 64.363281 " fill-opacity="1" fill-rule="nonzero"/><path fill="#e98b1b" d="M 31.546875 64.332031 L 31.546875 59.492188 C 31.820312 59.484375 32.09375 59.472656 32.363281 59.460938 L 32.363281 64.296875 C 32.09375 64.308594 31.820312 64.320312 31.546875 64.332031 " fill-opacity="1" fill-rule="nonzero"/><path fill="#e98b1b" d="M 32.9375 64.269531 L 32.9375 59.433594 C 33.210938 59.417969 33.480469 59.402344 33.753906 59.382812 L 33.753906 64.21875 C 33.480469 64.234375 33.210938 64.253906 32.9375 64.269531 " fill-opacity="1" fill-rule="nonzero"/><path fill="#e98b1b" d="M 34.324219 64.175781 L 34.324219 59.34375 C 34.601562 59.320312 34.871094 59.300781 35.140625 59.277344 L 35.140625 64.113281 C 34.871094 64.136719 34.601562 64.160156 34.324219 64.175781 " fill-opacity="1" fill-rule="nonzero"/><path fill="#e98b1b" d="M 35.710938 64.054688 L 35.710938 59.222656 C 35.988281 59.195312 36.261719 59.171875 36.53125 59.140625 L 36.53125 63.972656 C 36.261719 64.003906 35.988281 64.027344 35.710938 64.054688 " fill-opacity="1" fill-rule="nonzero"/><path fill="#e98b1b" d="M 37.101562 63.902344 L 37.101562 59.074219 C 37.375 59.042969 37.648438 59.007812 37.917969 58.972656 L 37.917969 63.800781 C 37.648438 63.835938 37.375 63.871094 37.101562 63.902344 " fill-opacity="1" fill-rule="nonzero"/><path fill="#e98b1b" d="M 24.03125 64.175781 C 23.761719 64.15625 23.488281 64.132812 23.21875 64.109375 L 23.21875 59.277344 C 23.488281 59.296875 23.761719 59.320312 24.03125 59.339844 L 24.03125 64.175781 " fill-opacity="1" fill-rule="nonzero"/><path fill="#e98b1b" d="M 22.644531 64.050781 C 22.371094 64.027344 22.101562 64 21.828125 63.96875 L 21.828125 59.136719 C 22.101562 59.167969 22.371094 59.195312 22.644531 59.222656 L 22.644531 64.050781 " fill-opacity="1" fill-rule="nonzero"/><path fill="#e98b1b" d="M 21.257812 63.898438 C 20.984375 63.867188 20.710938 63.832031 20.441406 63.792969 L 20.441406 58.96875 C 20.710938 59.003906 20.984375 59.035156 21.257812 59.070312 L 21.257812 63.898438 " fill-opacity="1" fill-rule="nonzero"/><path fill="#e98b1b" d="M 12.925781 62.164062 C 12.648438 62.078125 12.375 61.984375 12.109375 61.894531 L 12.109375 57.101562 C 12.375 57.191406 12.648438 57.28125 12.925781 57.367188 L 12.925781 62.164062 " fill-opacity="1" fill-rule="nonzero"/><path fill="#e98b1b" d="M 11.464844 61.65625 C 11.210938 61.558594 10.960938 61.460938 10.722656 61.363281 L 10.722656 56.589844 C 10.988281 56.695312 11.257812 56.800781 11.539062 56.902344 L 11.539062 61.574219 C 11.539062 61.605469 11.507812 61.632812 11.464844 61.65625 " fill-opacity="1" fill-rule="nonzero"/><path fill="#e98b1b" d="M 9.941406 61.023438 C 9.730469 60.925781 9.53125 60.832031 9.332031 60.730469 L 9.332031 55.980469 C 9.597656 56.109375 9.867188 56.234375 10.152344 56.355469 L 10.152344 60.898438 C 10.152344 60.953125 10.0625 60.996094 9.941406 61.023438 " fill-opacity="1" fill-rule="nonzero"/><path fill="#e98b1b" d="M 8.59375 60.339844 C 8.367188 60.210938 8.152344 60.082031 7.945312 59.949219 L 7.945312 55.234375 C 8.207031 55.394531 8.476562 55.546875 8.761719 55.699219 L 8.761719 60.222656 C 8.761719 60.273438 8.691406 60.308594 8.59375 60.339844 " fill-opacity="1" fill-rule="nonzero"/><path fill="#e98b1b" d="M 7.367188 59.5625 C 7.070312 59.34375 6.800781 59.125 6.558594 58.902344 L 6.558594 54.269531 C 6.808594 54.472656 7.082031 54.675781 7.375 54.871094 L 7.375 59.546875 L 7.367188 59.5625 " fill-opacity="1" fill-rule="nonzero"/><path fill="#e98b1b" d="M 5.984375 58.320312 C 5.617188 57.898438 5.34375 57.457031 5.167969 57.007812 L 5.167969 53.003906 C 5.28125 53.078125 5.394531 53.148438 5.511719 53.21875 C 5.652344 53.398438 5.8125 53.574219 5.984375 53.75 L 5.984375 58.320312 " fill-opacity="1" fill-rule="nonzero"/><path fill="#f89e19" d="M 51.421875 48.875 L 51.421875 43.707031 L 2.199219 43.707031 L 2.199219 48.875 C 2.199219 53.664062 13.21875 57.542969 26.808594 57.542969 C 40.402344 57.542969 51.421875 53.664062 51.421875 48.875 " fill-opacity="1" fill-rule="nonzero"/><path fill="#f5c116" d="M 26.808594 51.992188 C 13.21875 51.992188 2.199219 48.113281 2.199219 43.324219 C 2.199219 38.539062 13.21875 34.660156 26.808594 34.660156 C 40.402344 34.660156 51.421875 38.539062 51.421875 43.324219 C 51.421875 48.113281 40.402344 51.992188 26.808594 51.992188 " fill-opacity="1" fill-rule="nonzero"/><path fill="#f89e19" d="M 28.292969 46.710938 C 29.277344 46.644531 30.082031 46.484375 30.703125 46.226562 C 31.320312 45.96875 31.628906 45.664062 31.628906 45.316406 C 31.628906 45.007812 31.367188 44.738281 30.847656 44.515625 C 30.328125 44.289062 29.480469 44.117188 28.292969 43.996094 L 28.292969 46.710938 M 25.429688 39.308594 C 24.652344 39.402344 24.03125 39.558594 23.570312 39.78125 C 23.113281 40.003906 22.878906 40.25 22.878906 40.519531 C 22.878906 40.765625 23.089844 40.996094 23.511719 41.203125 C 23.933594 41.414062 24.570312 41.585938 25.429688 41.714844 L 25.429688 39.308594 M 25.429688 46.613281 L 25.429688 43.699219 C 22.847656 43.4375 20.957031 43.046875 19.75 42.519531 C 18.546875 41.992188 17.945312 41.355469 17.945312 40.601562 C 17.945312 39.84375 18.625 39.203125 19.988281 38.6875 C 21.347656 38.171875 23.164062 37.871094 25.429688 37.792969 L 25.429688 37.105469 L 28.292969 37.105469 L 28.292969 37.792969 C 30.382812 37.882812 32.046875 38.132812 33.289062 38.546875 C 34.527344 38.960938 35.316406 39.515625 35.65625 40.214844 L 30.660156 40.445312 C 30.359375 39.894531 29.566406 39.523438 28.292969 39.332031 L 28.292969 42.050781 C 31.453125 42.351562 33.605469 42.742188 34.75 43.21875 C 35.894531 43.703125 36.46875 44.316406 36.46875 45.066406 C 36.46875 45.90625 35.746094 46.613281 34.308594 47.1875 C 32.863281 47.761719 30.859375 48.117188 28.292969 48.246094 L 28.292969 49.546875 L 25.429688 49.546875 L 25.429688 48.28125 C 23.152344 48.183594 21.300781 47.886719 19.878906 47.382812 C 18.457031 46.882812 17.550781 46.175781 17.152344 45.261719 L 22.308594 45.066406 C 22.519531 45.4375 22.914062 45.757812 23.492188 46.027344 C 24.070312 46.296875 24.71875 46.488281 25.429688 46.613281 " fill-opacity="1" fill-rule="nonzero"/><path fill="#e98b1b" d="M 48.640625 52.347656 L 48.632812 52.335938 L 48.632812 47.660156 C 48.925781 47.460938 49.199219 47.257812 49.449219 47.054688 L 49.449219 51.6875 C 49.203125 51.910156 48.9375 52.132812 48.640625 52.347656 " fill-opacity="1" fill-rule="nonzero"/><path fill="#e98b1b" d="M 47.414062 53.125 C 47.316406 53.097656 47.246094 53.058594 47.246094 53.011719 L 47.246094 48.484375 C 47.53125 48.332031 47.800781 48.179688 48.0625 48.019531 L 48.0625 52.734375 C 47.855469 52.867188 47.636719 52.996094 47.414062 53.125 " fill-opacity="1" fill-rule="nonzero"/><path fill="#e98b1b" d="M 50.023438 51.105469 L 50.023438 46.535156 C 50.351562 46.203125 50.625 45.867188 50.835938 45.523438 L 50.835938 49.796875 C 50.660156 50.242188 50.390625 50.683594 50.023438 51.105469 " fill-opacity="1" fill-rule="nonzero"/><path fill="#e98b1b" d="M 46.066406 53.808594 C 45.945312 53.785156 45.855469 53.738281 45.855469 53.6875 L 45.855469 49.140625 C 46.140625 49.019531 46.410156 48.894531 46.671875 48.765625 L 46.671875 53.519531 C 46.476562 53.617188 46.273438 53.714844 46.066406 53.808594 " fill-opacity="1" fill-rule="nonzero"/><path fill="#e98b1b" d="M 44.546875 54.441406 C 44.5 54.417969 44.46875 54.390625 44.46875 54.363281 L 44.46875 49.6875 C 44.75 49.585938 45.019531 49.480469 45.285156 49.375 L 45.285156 54.148438 C 45.046875 54.25 44.796875 54.347656 44.546875 54.441406 " fill-opacity="1" fill-rule="nonzero"/><path fill="#e98b1b" d="M 43.082031 54.949219 L 43.082031 50.152344 C 43.359375 50.066406 43.628906 49.976562 43.898438 49.886719 L 43.898438 54.679688 C 43.628906 54.773438 43.359375 54.863281 43.082031 54.949219 " fill-opacity="1" fill-rule="nonzero"/><path fill="#e98b1b" d="M 41.691406 55.359375 L 41.691406 50.554688 C 41.96875 50.480469 42.242188 50.40625 42.507812 50.328125 L 42.507812 55.125 C 42.242188 55.207031 41.96875 55.28125 41.691406 55.359375 " fill-opacity="1" fill-rule="nonzero"/><path fill="#e98b1b" d="M 40.304688 55.714844 L 40.304688 50.898438 C 40.582031 50.835938 40.851562 50.769531 41.121094 50.703125 L 41.121094 55.511719 C 40.851562 55.582031 40.582031 55.648438 40.304688 55.714844 " fill-opacity="1" fill-rule="nonzero"/><path fill="#e98b1b" d="M 38.914062 56.015625 L 38.914062 51.199219 C 39.1875 51.144531 39.464844 51.085938 39.730469 51.027344 L 39.730469 55.84375 C 39.464844 55.902344 39.1875 55.960938 38.914062 56.015625 " fill-opacity="1" fill-rule="nonzero"/><path fill="#e98b1b" d="M 37.527344 56.28125 L 37.527344 51.457031 C 37.800781 51.410156 38.074219 51.359375 38.34375 51.308594 L 38.34375 56.132812 C 38.074219 56.183594 37.800781 56.234375 37.527344 56.28125 " fill-opacity="1" fill-rule="nonzero"/><path fill="#e98b1b" d="M 36.136719 56.5 L 36.136719 51.671875 C 36.414062 51.632812 36.683594 51.589844 36.953125 51.546875 L 36.953125 56.375 C 36.683594 56.417969 36.414062 56.460938 36.136719 56.5 " fill-opacity="1" fill-rule="nonzero"/><path fill="#e98b1b" d="M 17.484375 56.5 C 17.210938 56.460938 16.933594 56.417969 16.667969 56.375 L 16.667969 51.546875 C 16.933594 51.589844 17.210938 51.632812 17.484375 51.671875 L 17.484375 56.5 " fill-opacity="1" fill-rule="nonzero"/><path fill="#e98b1b" d="M 16.09375 56.28125 C 15.820312 56.234375 15.546875 56.183594 15.277344 56.132812 L 15.277344 51.308594 C 15.546875 51.359375 15.820312 51.410156 16.09375 51.457031 L 16.09375 56.28125 " fill-opacity="1" fill-rule="nonzero"/><path fill="#e98b1b" d="M 14.707031 56.015625 C 14.429688 55.960938 14.160156 55.902344 13.890625 55.84375 L 13.890625 51.027344 C 14.160156 51.085938 14.429688 51.144531 14.707031 51.199219 L 14.707031 56.015625 " fill-opacity="1" fill-rule="nonzero"/><path fill="#e98b1b" d="M 13.316406 55.714844 C 13.039062 55.648438 12.769531 55.582031 12.5 55.511719 L 12.5 50.703125 C 12.769531 50.769531 13.039062 50.835938 13.316406 50.898438 L 13.316406 55.714844 " fill-opacity="1" fill-rule="nonzero"/><path fill="#e98b1b" d="M 11.929688 55.359375 C 11.652344 55.28125 11.378906 55.207031 11.113281 55.125 L 11.113281 50.328125 C 11.378906 50.40625 11.652344 50.480469 11.929688 50.554688 L 11.929688 55.359375 " fill-opacity="1" fill-rule="nonzero"/><path fill="#e98b1b" d="M 24.425781 57.117188 C 24.148438 57.105469 23.878906 57.09375 23.609375 57.082031 L 23.609375 52.246094 C 23.878906 52.257812 24.148438 52.269531 24.425781 52.277344 L 24.425781 57.117188 " fill-opacity="1" fill-rule="nonzero"/><path fill="#e98b1b" d="M 23.035156 57.054688 C 22.761719 57.039062 22.492188 57.019531 22.21875 57.003906 L 22.21875 52.164062 C 22.492188 52.183594 22.761719 52.203125 23.035156 52.21875 L 23.035156 57.054688 " fill-opacity="1" fill-rule="nonzero"/><path fill="#e98b1b" d="M 25.8125 57.148438 C 25.539062 57.144531 25.269531 57.136719 24.996094 57.132812 L 24.996094 52.292969 C 25.269531 52.300781 25.539062 52.304688 25.8125 52.3125 L 25.8125 57.148438 " fill-opacity="1" fill-rule="nonzero"/><path fill="#e98b1b" d="M 26.808594 57.15625 C 26.667969 57.15625 26.527344 57.152344 26.386719 57.152344 L 26.386719 52.3125 C 26.527344 52.316406 26.667969 52.320312 26.808594 52.320312 C 26.941406 52.320312 27.070312 52.316406 27.199219 52.316406 L 27.199219 57.152344 C 27.070312 57.152344 26.941406 57.15625 26.808594 57.15625 " fill-opacity="1" fill-rule="nonzero"/><path fill="#e98b1b" d="M 27.773438 57.148438 L 27.773438 52.3125 C 28.046875 52.308594 28.316406 52.304688 28.589844 52.296875 L 28.589844 57.132812 C 28.316406 57.140625 28.046875 57.144531 27.773438 57.148438 " fill-opacity="1" fill-rule="nonzero"/><path fill="#e98b1b" d="M 29.160156 57.117188 L 29.160156 52.277344 C 29.433594 52.269531 29.707031 52.257812 29.976562 52.246094 L 29.976562 57.082031 C 29.707031 57.09375 29.433594 57.109375 29.160156 57.117188 " fill-opacity="1" fill-rule="nonzero"/><path fill="#e98b1b" d="M 30.550781 57.054688 L 30.550781 52.21875 C 30.824219 52.207031 31.09375 52.1875 31.367188 52.167969 L 31.367188 57.003906 C 31.09375 57.023438 30.824219 57.042969 30.550781 57.054688 " fill-opacity="1" fill-rule="nonzero"/><path fill="#e98b1b" d="M 31.9375 56.964844 L 31.9375 52.128906 C 32.210938 52.109375 32.484375 52.085938 32.753906 52.0625 L 32.753906 56.898438 C 32.484375 56.921875 32.210938 56.945312 31.9375 56.964844 " fill-opacity="1" fill-rule="nonzero"/><path fill="#e98b1b" d="M 33.324219 56.84375 L 33.324219 52.011719 C 33.601562 51.984375 33.875 51.957031 34.140625 51.929688 L 34.140625 56.757812 C 33.875 56.789062 33.601562 56.816406 33.324219 56.84375 " fill-opacity="1" fill-rule="nonzero"/><path fill="#e98b1b" d="M 34.714844 56.691406 L 34.714844 51.859375 C 34.988281 51.828125 35.261719 51.792969 35.53125 51.757812 L 35.53125 56.585938 C 35.261719 56.625 34.988281 56.65625 34.714844 56.691406 " fill-opacity="1" fill-rule="nonzero"/><path fill="#e98b1b" d="M 21.648438 56.960938 C 21.375 56.941406 21.101562 56.921875 20.832031 56.894531 L 20.832031 52.0625 C 21.101562 52.082031 21.375 52.105469 21.648438 52.128906 L 21.648438 56.960938 " fill-opacity="1" fill-rule="nonzero"/><path fill="#e98b1b" d="M 20.257812 56.839844 C 19.984375 56.8125 19.710938 56.785156 19.441406 56.753906 L 19.441406 51.921875 C 19.710938 51.953125 19.984375 51.980469 20.257812 52.007812 L 20.257812 56.839844 " fill-opacity="1" fill-rule="nonzero"/><path fill="#e98b1b" d="M 18.871094 56.6875 C 18.597656 56.652344 18.324219 56.617188 18.054688 56.582031 L 18.054688 51.753906 C 18.324219 51.789062 18.597656 51.824219 18.871094 51.855469 L 18.871094 56.6875 " fill-opacity="1" fill-rule="nonzero"/><path fill="#e98b1b" d="M 10.539062 54.949219 C 10.261719 54.863281 9.988281 54.773438 9.722656 54.679688 L 9.722656 49.886719 C 9.988281 49.976562 10.261719 50.066406 10.539062 50.152344 L 10.539062 54.949219 " fill-opacity="1" fill-rule="nonzero"/><path fill="#e98b1b" d="M 9.078125 54.441406 C 8.824219 54.347656 8.574219 54.25 8.335938 54.148438 L 8.335938 49.375 C 8.601562 49.480469 8.871094 49.585938 9.152344 49.6875 L 9.152344 54.363281 C 9.152344 54.390625 9.121094 54.417969 9.078125 54.441406 " fill-opacity="1" fill-rule="nonzero"/><path fill="#e98b1b" d="M 7.554688 53.808594 C 7.34375 53.714844 7.144531 53.617188 6.949219 53.519531 L 6.949219 48.765625 C 7.210938 48.894531 7.480469 49.019531 7.765625 49.140625 L 7.765625 53.6875 C 7.765625 53.738281 7.675781 53.785156 7.554688 53.808594 " fill-opacity="1" fill-rule="nonzero"/><path fill="#e98b1b" d="M 6.207031 53.125 C 5.980469 52.996094 5.765625 52.867188 5.558594 52.734375 L 5.558594 48.019531 C 5.820312 48.179688 6.085938 48.332031 6.375 48.484375 L 6.375 53.011719 C 6.375 53.058594 6.304688 53.097656 6.207031 53.125 " fill-opacity="1" fill-rule="nonzero"/><path fill="#e98b1b" d="M 4.980469 52.347656 C 4.683594 52.132812 4.417969 51.910156 4.171875 51.6875 L 4.171875 47.054688 C 4.421875 47.257812 4.695312 47.460938 4.988281 47.660156 L 4.988281 52.335938 L 4.980469 52.347656 " fill-opacity="1" fill-rule="nonzero"/><path fill="#e98b1b" d="M 3.597656 51.105469 C 3.234375 50.683594 2.960938 50.242188 2.78125 49.796875 L 2.78125 45.523438 C 2.996094 45.867188 3.273438 46.203125 3.597656 46.535156 L 3.597656 51.105469 " fill-opacity="1" fill-rule="nonzero"/><g clip-path="url(#4c083335ef)"><path fill="#f89e19" d="M 54.769531 39.878906 L 54.769531 34.710938 L 5.550781 34.710938 L 5.550781 39.878906 C 5.550781 44.667969 16.570312 48.546875 30.160156 48.546875 C 43.75 48.546875 54.769531 44.667969 54.769531 39.878906 " fill-opacity="1" fill-rule="nonzero"/></g><g clip-path="url(#afcbd0d9b8)"><path fill="#f5c116" d="M 30.160156 42.996094 C 16.570312 42.996094 5.550781 39.117188 5.550781 34.332031 C 5.550781 29.542969 16.570312 25.664062 30.160156 25.664062 C 43.75 25.664062 54.769531 29.542969 54.769531 34.332031 C 54.769531 39.117188 43.75 42.996094 30.160156 42.996094 " fill-opacity="1" fill-rule="nonzero"/></g><path fill="#f89e19" d="M 31.640625 37.714844 C 32.628906 37.648438 33.433594 37.488281 34.050781 37.230469 C 34.667969 36.972656 34.980469 36.667969 34.980469 36.324219 C 34.980469 36.011719 34.71875 35.746094 34.199219 35.519531 C 33.679688 35.296875 32.828125 35.121094 31.640625 35 L 31.640625 37.714844 M 28.777344 30.316406 C 28.003906 30.40625 27.382812 30.5625 26.921875 30.785156 C 26.460938 31.011719 26.230469 31.257812 26.230469 31.523438 C 26.230469 31.769531 26.441406 32 26.863281 32.210938 C 27.285156 32.417969 27.921875 32.589844 28.777344 32.71875 L 28.777344 30.316406 M 28.777344 37.617188 L 28.777344 34.703125 C 26.199219 34.441406 24.308594 34.050781 23.097656 33.523438 C 21.898438 32.996094 21.292969 32.359375 21.292969 31.609375 C 21.292969 30.847656 21.976562 30.207031 23.339844 29.691406 C 24.699219 29.175781 26.511719 28.878906 28.777344 28.796875 L 28.777344 28.109375 L 31.640625 28.109375 L 31.640625 28.796875 C 33.734375 28.886719 35.398438 29.140625 36.636719 29.554688 C 37.875 29.96875 38.667969 30.523438 39.007812 31.21875 L 34.011719 31.449219 C 33.710938 30.898438 32.917969 30.53125 31.640625 30.335938 L 31.640625 33.054688 C 34.800781 33.355469 36.957031 33.746094 38.101562 34.226562 C 39.246094 34.707031 39.816406 35.320312 39.816406 36.070312 C 39.816406 36.914062 39.09375 37.617188 37.65625 38.191406 C 36.214844 38.769531 34.207031 39.121094 31.640625 39.253906 L 31.640625 40.550781 L 28.777344 40.550781 L 28.777344 39.285156 C 26.5 39.1875 24.652344 38.890625 23.226562 38.386719 C 21.808594 37.886719 20.898438 37.179688 20.503906 36.265625 L 25.65625 36.070312 C 25.867188 36.441406 26.261719 36.761719 26.84375 37.03125 C 27.421875 37.300781 28.066406 37.496094 28.777344 37.617188 " fill-opacity="1" fill-rule="nonzero"/><path fill="#e98b1b" d="M 51.988281 43.351562 L 51.980469 43.339844 L 51.980469 38.664062 C 52.273438 38.464844 52.550781 38.265625 52.800781 38.058594 L 52.800781 42.691406 C 52.554688 42.914062 52.285156 43.136719 51.988281 43.351562 " fill-opacity="1" fill-rule="nonzero"/><path fill="#e98b1b" d="M 50.765625 44.128906 C 50.664062 44.101562 50.59375 44.0625 50.59375 44.015625 L 50.59375 39.488281 C 50.882812 39.339844 51.152344 39.183594 51.414062 39.027344 L 51.414062 43.742188 C 51.207031 43.871094 50.988281 44.003906 50.765625 44.128906 " fill-opacity="1" fill-rule="nonzero"/><g clip-path="url(#8849949cd8)"><path fill="#e98b1b" d="M 53.371094 42.109375 L 53.371094 37.539062 C 53.699219 37.210938 53.972656 36.871094 54.1875 36.527344 L 54.1875 40.800781 C 54.011719 41.25 53.738281 41.6875 53.371094 42.109375 " fill-opacity="1" fill-rule="nonzero"/></g><path fill="#e98b1b" d="M 49.417969 44.8125 C 49.292969 44.789062 49.207031 44.742188 49.207031 44.691406 L 49.207031 40.148438 C 49.488281 40.023438 49.757812 39.898438 50.023438 39.773438 L 50.023438 44.523438 C 49.824219 44.621094 49.625 44.71875 49.417969 44.8125 " fill-opacity="1" fill-rule="nonzero"/><path fill="#e98b1b" d="M 47.894531 45.445312 C 47.851562 45.421875 47.820312 45.394531 47.820312 45.367188 L 47.820312 40.691406 C 48.097656 40.589844 48.371094 40.488281 48.632812 40.378906 L 48.632812 45.152344 C 48.394531 45.253906 48.148438 45.351562 47.894531 45.445312 " fill-opacity="1" fill-rule="nonzero"/><path fill="#e98b1b" d="M 46.429688 45.953125 L 46.429688 41.15625 C 46.707031 41.070312 46.980469 40.980469 47.246094 40.890625 L 47.246094 45.683594 C 46.980469 45.777344 46.707031 45.867188 46.429688 45.953125 " fill-opacity="1" fill-rule="nonzero"/><path fill="#e98b1b" d="M 45.042969 46.363281 L 45.042969 41.558594 C 45.316406 41.484375 45.589844 41.410156 45.855469 41.332031 L 45.855469 46.128906 C 45.589844 46.210938 45.320312 46.285156 45.042969 46.363281 " fill-opacity="1" fill-rule="nonzero"/><path fill="#e98b1b" d="M 43.652344 46.71875 L 43.652344 41.90625 C 43.929688 41.839844 44.199219 41.773438 44.46875 41.707031 L 44.46875 46.515625 C 44.199219 46.585938 43.929688 46.65625 43.652344 46.71875 " fill-opacity="1" fill-rule="nonzero"/><path fill="#e98b1b" d="M 42.265625 47.019531 L 42.265625 42.203125 C 42.539062 42.148438 42.8125 42.089844 43.082031 42.035156 L 43.082031 46.847656 C 42.8125 46.910156 42.539062 46.964844 42.265625 47.019531 " fill-opacity="1" fill-rule="nonzero"/><path fill="#e98b1b" d="M 40.878906 47.285156 L 40.878906 42.460938 C 41.152344 42.414062 41.421875 42.363281 41.691406 42.3125 L 41.691406 47.136719 C 41.425781 47.1875 41.148438 47.238281 40.878906 47.285156 " fill-opacity="1" fill-rule="nonzero"/><path fill="#e98b1b" d="M 39.488281 47.507812 L 39.488281 42.675781 C 39.761719 42.636719 40.035156 42.597656 40.304688 42.554688 L 40.304688 47.378906 C 40.035156 47.421875 39.761719 47.464844 39.488281 47.507812 " fill-opacity="1" fill-rule="nonzero"/><path fill="#e98b1b" d="M 20.832031 47.507812 C 20.558594 47.464844 20.285156 47.421875 20.015625 47.378906 L 20.015625 42.554688 C 20.285156 42.597656 20.558594 42.636719 20.832031 42.675781 L 20.832031 47.507812 " fill-opacity="1" fill-rule="nonzero"/><path fill="#e98b1b" d="M 19.441406 47.285156 C 19.167969 47.238281 18.894531 47.1875 18.628906 47.136719 L 18.628906 42.3125 C 18.898438 42.363281 19.167969 42.414062 19.441406 42.460938 L 19.441406 47.285156 " fill-opacity="1" fill-rule="nonzero"/><path fill="#e98b1b" d="M 18.054688 47.019531 C 17.78125 46.964844 17.507812 46.910156 17.238281 46.847656 L 17.238281 42.035156 C 17.507812 42.089844 17.78125 42.148438 18.054688 42.203125 L 18.054688 47.019531 " fill-opacity="1" fill-rule="nonzero"/><path fill="#e98b1b" d="M 16.667969 46.71875 C 16.390625 46.65625 16.117188 46.585938 15.851562 46.515625 L 15.851562 41.707031 C 16.117188 41.773438 16.390625 41.839844 16.667969 41.90625 L 16.667969 46.71875 " fill-opacity="1" fill-rule="nonzero"/><path fill="#e98b1b" d="M 15.277344 46.363281 C 15 46.285156 14.730469 46.210938 14.464844 46.128906 L 14.464844 41.332031 C 14.730469 41.410156 15.003906 41.484375 15.277344 41.558594 L 15.277344 46.363281 " fill-opacity="1" fill-rule="nonzero"/><path fill="#e98b1b" d="M 27.773438 48.121094 C 27.5 48.109375 27.230469 48.097656 26.957031 48.085938 L 26.957031 43.25 C 27.230469 43.261719 27.5 43.273438 27.773438 43.285156 L 27.773438 48.121094 " fill-opacity="1" fill-rule="nonzero"/><path fill="#e98b1b" d="M 26.386719 48.058594 C 26.113281 48.042969 25.839844 48.027344 25.570312 48.007812 L 25.570312 43.171875 C 25.839844 43.1875 26.113281 43.207031 26.386719 43.222656 L 26.386719 48.058594 " fill-opacity="1" fill-rule="nonzero"/><path fill="#e98b1b" d="M 29.164062 48.152344 C 28.890625 48.148438 28.617188 48.144531 28.347656 48.136719 L 28.347656 43.300781 C 28.617188 43.304688 28.890625 43.308594 29.164062 43.316406 L 29.164062 48.152344 " fill-opacity="1" fill-rule="nonzero"/><path fill="#e98b1b" d="M 30.160156 48.164062 C 30.019531 48.164062 29.878906 48.160156 29.734375 48.15625 L 29.734375 43.320312 C 29.878906 43.320312 30.019531 43.324219 30.160156 43.324219 C 30.292969 43.324219 30.421875 43.320312 30.550781 43.320312 L 30.550781 48.15625 C 30.421875 48.160156 30.292969 48.164062 30.160156 48.164062 " fill-opacity="1" fill-rule="nonzero"/><path fill="#e98b1b" d="M 31.125 48.152344 L 31.125 43.316406 C 31.398438 43.3125 31.667969 43.308594 31.941406 43.300781 L 31.941406 48.136719 C 31.667969 48.144531 31.398438 48.148438 31.125 48.152344 " fill-opacity="1" fill-rule="nonzero"/><path fill="#e98b1b" d="M 32.511719 48.121094 L 32.511719 43.285156 C 32.785156 43.273438 33.054688 43.261719 33.328125 43.25 L 33.328125 48.085938 C 33.054688 48.097656 32.785156 48.113281 32.511719 48.121094 " fill-opacity="1" fill-rule="nonzero"/><path fill="#e98b1b" d="M 33.898438 48.058594 L 33.898438 43.222656 C 34.175781 43.210938 34.445312 43.191406 34.714844 43.171875 L 34.714844 48.007812 C 34.445312 48.027344 34.175781 48.046875 33.898438 48.058594 " fill-opacity="1" fill-rule="nonzero"/><path fill="#e98b1b" d="M 35.289062 47.96875 L 35.289062 43.132812 C 35.5625 43.113281 35.832031 43.089844 36.105469 43.066406 L 36.105469 47.902344 C 35.835938 47.925781 35.5625 47.949219 35.289062 47.96875 " fill-opacity="1" fill-rule="nonzero"/><path fill="#e98b1b" d="M 36.675781 47.847656 L 36.675781 43.015625 C 36.949219 42.988281 37.226562 42.960938 37.492188 42.933594 L 37.492188 47.761719 C 37.226562 47.792969 36.949219 47.820312 36.675781 47.847656 " fill-opacity="1" fill-rule="nonzero"/><path fill="#e98b1b" d="M 38.066406 47.695312 L 38.066406 42.867188 C 38.339844 42.832031 38.613281 42.796875 38.878906 42.761719 L 38.878906 47.589844 C 38.613281 47.628906 38.339844 47.660156 38.066406 47.695312 " fill-opacity="1" fill-rule="nonzero"/><path fill="#e98b1b" d="M 24.996094 47.964844 C 24.722656 47.945312 24.453125 47.925781 24.179688 47.898438 L 24.179688 43.066406 C 24.453125 43.089844 24.722656 43.109375 24.996094 43.128906 L 24.996094 47.964844 " fill-opacity="1" fill-rule="nonzero"/><path fill="#e98b1b" d="M 23.609375 47.84375 C 23.335938 47.816406 23.0625 47.789062 22.792969 47.761719 L 22.792969 42.929688 C 23.0625 42.957031 23.335938 42.984375 23.609375 43.011719 L 23.609375 47.84375 " fill-opacity="1" fill-rule="nonzero"/><path fill="#e98b1b" d="M 22.21875 47.691406 C 21.945312 47.660156 21.675781 47.621094 21.40625 47.585938 L 21.40625 42.757812 C 21.675781 42.792969 21.945312 42.828125 22.21875 42.859375 L 22.21875 47.691406 " fill-opacity="1" fill-rule="nonzero"/><path fill="#e98b1b" d="M 13.890625 45.953125 C 13.613281 45.867188 13.339844 45.777344 13.074219 45.683594 L 13.074219 40.890625 C 13.339844 40.980469 13.613281 41.070312 13.890625 41.15625 L 13.890625 45.953125 " fill-opacity="1" fill-rule="nonzero"/><path fill="#e98b1b" d="M 12.425781 45.445312 C 12.171875 45.351562 11.925781 45.253906 11.6875 45.152344 L 11.6875 40.378906 C 11.953125 40.488281 12.222656 40.589844 12.5 40.691406 L 12.5 45.367188 C 12.5 45.394531 12.46875 45.421875 12.425781 45.445312 " fill-opacity="1" fill-rule="nonzero"/><path fill="#e98b1b" d="M 10.90625 44.8125 C 10.695312 44.71875 10.496094 44.621094 10.296875 44.523438 L 10.296875 39.773438 C 10.558594 39.898438 10.832031 40.023438 11.113281 40.148438 L 11.113281 44.691406 C 11.113281 44.742188 11.027344 44.789062 10.90625 44.8125 " fill-opacity="1" fill-rule="nonzero"/><path fill="#e98b1b" d="M 9.554688 44.128906 C 9.332031 44.003906 9.113281 43.871094 8.910156 43.742188 L 8.910156 39.027344 C 9.167969 39.183594 9.4375 39.339844 9.726562 39.488281 L 9.726562 44.015625 C 9.726562 44.0625 9.65625 44.101562 9.554688 44.128906 " fill-opacity="1" fill-rule="nonzero"/><path fill="#e98b1b" d="M 8.332031 43.351562 C 8.035156 43.136719 7.765625 42.914062 7.519531 42.691406 L 7.519531 38.058594 C 7.769531 38.265625 8.046875 38.464844 8.339844 38.664062 L 8.339844 43.339844 L 8.332031 43.351562 " fill-opacity="1" fill-rule="nonzero"/><path fill="#e98b1b" d="M 6.949219 42.109375 C 6.582031 41.6875 6.308594 41.25 6.132812 40.800781 L 6.132812 37.429688 C 6.394531 37.546875 6.667969 37.660156 6.949219 37.769531 L 6.949219 42.109375 " fill-opacity="1" fill-rule="nonzero"/><g clip-path="url(#6e8d58eafc)"><path fill="#f89e19" d="M 50.015625 32.039062 L 50.015625 26.871094 L 0.796875 26.871094 L 0.796875 32.039062 C 0.796875 36.824219 11.8125 40.703125 25.40625 40.703125 C 38.996094 40.703125 50.015625 36.824219 50.015625 32.039062 " fill-opacity="1" fill-rule="nonzero"/></g><g clip-path="url(#c52f5299e5)"><path fill="#f5c116" d="M 25.40625 35.15625 C 11.8125 35.15625 0.796875 31.277344 0.796875 26.492188 C 0.796875 21.703125 11.8125 17.824219 25.40625 17.824219 C 38.996094 17.824219 50.015625 21.703125 50.015625 26.492188 C 50.015625 31.277344 38.996094 35.15625 25.40625 35.15625 " fill-opacity="1" fill-rule="nonzero"/></g><path fill="#f89e19" d="M 26.886719 29.875 C 27.871094 29.808594 28.675781 29.648438 29.296875 29.390625 C 29.914062 29.132812 30.222656 28.828125 30.222656 28.480469 C 30.222656 28.171875 29.964844 27.902344 29.441406 27.679688 C 28.921875 27.453125 28.074219 27.28125 26.886719 27.160156 L 26.886719 29.875 M 24.023438 22.472656 C 23.246094 22.566406 22.628906 22.722656 22.167969 22.945312 C 21.707031 23.167969 21.476562 23.414062 21.476562 23.683594 C 21.476562 23.929688 21.6875 24.15625 22.105469 24.367188 C 22.527344 24.578125 23.164062 24.75 24.023438 24.878906 L 24.023438 22.472656 M 24.023438 29.773438 L 24.023438 26.859375 C 21.441406 26.601562 19.550781 26.210938 18.34375 25.683594 C 17.140625 25.160156 16.539062 24.515625 16.539062 23.769531 C 16.539062 23.003906 17.21875 22.367188 18.582031 21.851562 C 19.945312 21.332031 21.757812 21.035156 24.023438 20.957031 L 24.023438 20.269531 L 26.886719 20.269531 L 26.886719 20.957031 C 28.976562 21.046875 30.640625 21.296875 31.882812 21.710938 C 33.121094 22.128906 33.910156 22.679688 34.25 23.378906 L 29.253906 23.605469 C 28.953125 23.0625 28.160156 22.6875 26.886719 22.496094 L 26.886719 25.214844 C 30.046875 25.511719 32.199219 25.90625 33.34375 26.386719 C 34.488281 26.867188 35.0625 27.480469 35.0625 28.230469 C 35.0625 29.070312 34.339844 29.777344 32.902344 30.351562 C 31.457031 30.929688 29.453125 31.28125 26.886719 31.410156 L 26.886719 32.710938 L 24.023438 32.710938 L 24.023438 31.445312 C 21.746094 31.347656 19.894531 31.046875 18.472656 30.546875 C 17.050781 30.046875 16.144531 29.339844 15.75 28.425781 L 20.902344 28.230469 C 21.113281 28.601562 21.507812 28.921875 22.085938 29.191406 C 22.667969 29.457031 23.3125 29.65625 24.023438 29.773438 " fill-opacity="1" fill-rule="nonzero"/><path fill="#e98b1b" d="M 47.234375 35.507812 L 47.226562 35.5 L 47.226562 30.820312 C 47.519531 30.625 47.796875 30.425781 48.042969 30.21875 L 48.042969 34.847656 C 47.796875 35.074219 47.53125 35.296875 47.234375 35.507812 " fill-opacity="1" fill-rule="nonzero"/><path fill="#e98b1b" d="M 46.007812 36.289062 C 45.910156 36.261719 45.839844 36.222656 45.839844 36.175781 L 45.839844 31.644531 C 46.125 31.496094 46.394531 31.339844 46.65625 31.183594 L 46.65625 35.902344 C 46.449219 36.03125 46.234375 36.160156 46.007812 36.289062 " fill-opacity="1" fill-rule="nonzero"/><path fill="#e98b1b" d="M 48.617188 34.269531 L 48.617188 29.699219 C 48.777344 29.535156 48.925781 29.371094 49.0625 29.207031 C 49.191406 29.109375 49.3125 29.011719 49.433594 28.914062 L 49.433594 32.960938 C 49.257812 33.40625 48.984375 33.847656 48.617188 34.269531 " fill-opacity="1" fill-rule="nonzero"/><path fill="#e98b1b" d="M 44.660156 36.972656 C 44.539062 36.945312 44.453125 36.902344 44.453125 36.851562 L 44.453125 32.304688 C 44.734375 32.183594 45.003906 32.058594 45.269531 31.933594 L 45.269531 36.679688 C 45.070312 36.78125 44.871094 36.878906 44.660156 36.972656 " fill-opacity="1" fill-rule="nonzero"/><path fill="#e98b1b" d="M 43.140625 37.605469 C 43.09375 37.582031 43.0625 37.554688 43.0625 37.527344 L 43.0625 32.851562 C 43.34375 32.75 43.613281 32.644531 43.878906 32.539062 L 43.878906 37.3125 C 43.640625 37.414062 43.390625 37.511719 43.140625 37.605469 " fill-opacity="1" fill-rule="nonzero"/><path fill="#e98b1b" d="M 41.675781 38.113281 L 41.675781 33.316406 C 41.953125 33.230469 42.222656 33.144531 42.492188 33.050781 L 42.492188 37.84375 C 42.222656 37.9375 41.953125 38.027344 41.675781 38.113281 " fill-opacity="1" fill-rule="nonzero"/><path fill="#e98b1b" d="M 40.285156 38.523438 L 40.285156 33.71875 C 40.5625 33.644531 40.835938 33.570312 41.101562 33.492188 L 41.101562 38.289062 C 40.835938 38.371094 40.5625 38.445312 40.285156 38.523438 " fill-opacity="1" fill-rule="nonzero"/><path fill="#e98b1b" d="M 38.898438 38.878906 L 38.898438 34.0625 C 39.175781 34 39.445312 33.933594 39.714844 33.867188 L 39.714844 38.675781 C 39.445312 38.746094 39.175781 38.8125 38.898438 38.878906 " fill-opacity="1" fill-rule="nonzero"/><path fill="#e98b1b" d="M 37.511719 39.179688 L 37.511719 34.363281 C 37.785156 34.308594 38.054688 34.25 38.328125 34.191406 L 38.328125 39.007812 C 38.054688 39.066406 37.785156 39.125 37.511719 39.179688 " fill-opacity="1" fill-rule="nonzero"/><path fill="#e98b1b" d="M 36.121094 39.441406 L 36.121094 34.621094 C 36.398438 34.574219 36.667969 34.523438 36.9375 34.472656 L 36.9375 39.296875 C 36.667969 39.347656 36.394531 39.394531 36.121094 39.441406 " fill-opacity="1" fill-rule="nonzero"/><path fill="#e98b1b" d="M 34.734375 39.667969 L 34.734375 34.835938 C 35.007812 34.796875 35.28125 34.757812 35.546875 34.710938 L 35.546875 39.539062 C 35.28125 39.582031 35.007812 39.625 34.734375 39.667969 " fill-opacity="1" fill-rule="nonzero"/><path fill="#e98b1b" d="M 16.078125 39.667969 C 15.800781 39.625 15.53125 39.582031 15.261719 39.539062 L 15.261719 34.710938 C 15.53125 34.757812 15.800781 34.796875 16.078125 34.835938 L 16.078125 39.667969 " fill-opacity="1" fill-rule="nonzero"/><path fill="#e98b1b" d="M 14.6875 39.441406 C 14.414062 39.394531 14.140625 39.347656 13.871094 39.296875 L 13.871094 34.472656 C 14.140625 34.523438 14.414062 34.574219 14.6875 34.621094 L 14.6875 39.441406 " fill-opacity="1" fill-rule="nonzero"/><path fill="#e98b1b" d="M 13.300781 39.179688 C 13.023438 39.125 12.753906 39.066406 12.484375 39.007812 L 12.484375 34.191406 C 12.753906 34.25 13.023438 34.308594 13.300781 34.363281 L 13.300781 39.179688 " fill-opacity="1" fill-rule="nonzero"/><path fill="#e98b1b" d="M 11.910156 38.878906 C 11.632812 38.8125 11.363281 38.746094 11.09375 38.675781 L 11.09375 33.867188 C 11.363281 33.933594 11.632812 34 11.910156 34.0625 L 11.910156 38.878906 " fill-opacity="1" fill-rule="nonzero"/><path fill="#e98b1b" d="M 10.523438 38.523438 C 10.246094 38.445312 9.976562 38.371094 9.707031 38.289062 L 9.707031 33.492188 C 9.972656 33.570312 10.246094 33.644531 10.523438 33.71875 L 10.523438 38.523438 " fill-opacity="1" fill-rule="nonzero"/><path fill="#e98b1b" d="M 23.015625 40.28125 C 22.746094 40.269531 22.472656 40.257812 22.203125 40.246094 L 22.203125 35.410156 C 22.472656 35.417969 22.746094 35.433594 23.015625 35.441406 L 23.015625 40.28125 " fill-opacity="1" fill-rule="nonzero"/><path fill="#e98b1b" d="M 21.628906 40.214844 C 21.355469 40.203125 21.085938 40.183594 20.8125 40.167969 L 20.8125 35.332031 C 21.085938 35.347656 21.355469 35.367188 21.628906 35.382812 L 21.628906 40.214844 " fill-opacity="1" fill-rule="nonzero"/><path fill="#e98b1b" d="M 24.40625 40.3125 C 24.132812 40.308594 23.863281 40.300781 23.59375 40.296875 L 23.59375 35.457031 C 23.863281 35.464844 24.132812 35.46875 24.40625 35.472656 L 24.40625 40.3125 " fill-opacity="1" fill-rule="nonzero"/><path fill="#e98b1b" d="M 25.40625 40.324219 C 25.261719 40.324219 25.121094 40.320312 24.980469 40.316406 L 24.980469 35.480469 C 25.121094 35.480469 25.261719 35.484375 25.40625 35.484375 C 25.535156 35.484375 25.664062 35.480469 25.796875 35.480469 L 25.796875 40.316406 C 25.664062 40.320312 25.535156 40.324219 25.40625 40.324219 " fill-opacity="1" fill-rule="nonzero"/><path fill="#e98b1b" d="M 26.367188 40.3125 L 26.367188 35.472656 C 26.640625 35.46875 26.914062 35.464844 27.183594 35.460938 L 27.183594 40.296875 C 26.914062 40.300781 26.640625 40.308594 26.367188 40.3125 " fill-opacity="1" fill-rule="nonzero"/><path fill="#e98b1b" d="M 27.757812 40.28125 L 27.757812 35.445312 C 28.03125 35.433594 28.300781 35.421875 28.570312 35.410156 L 28.570312 40.246094 C 28.300781 40.257812 28.03125 40.273438 27.757812 40.28125 " fill-opacity="1" fill-rule="nonzero"/><path fill="#e98b1b" d="M 29.144531 40.21875 L 29.144531 35.382812 C 29.417969 35.371094 29.6875 35.351562 29.960938 35.332031 L 29.960938 40.167969 C 29.6875 40.1875 29.417969 40.207031 29.144531 40.21875 " fill-opacity="1" fill-rule="nonzero"/><path fill="#e98b1b" d="M 30.53125 40.125 L 30.53125 35.292969 C 30.808594 35.273438 31.078125 35.25 31.347656 35.226562 L 31.347656 40.0625 C 31.078125 40.085938 30.808594 40.105469 30.53125 40.125 " fill-opacity="1" fill-rule="nonzero"/><path fill="#e98b1b" d="M 31.917969 40.007812 L 31.917969 35.175781 C 32.195312 35.148438 32.46875 35.121094 32.738281 35.089844 L 32.738281 39.921875 C 32.46875 39.953125 32.195312 39.980469 31.917969 40.007812 " fill-opacity="1" fill-rule="nonzero"/><path fill="#e98b1b" d="M 33.308594 39.855469 L 33.308594 35.023438 C 33.582031 34.992188 33.855469 34.957031 34.125 34.921875 L 34.125 39.75 C 33.855469 39.785156 33.582031 39.820312 33.308594 39.855469 " fill-opacity="1" fill-rule="nonzero"/><path fill="#e98b1b" d="M 20.242188 40.125 C 19.96875 40.105469 19.695312 40.082031 19.425781 40.058594 L 19.425781 35.226562 C 19.695312 35.25 19.96875 35.269531 20.242188 35.289062 L 20.242188 40.125 " fill-opacity="1" fill-rule="nonzero"/><path fill="#e98b1b" d="M 18.851562 40.003906 C 18.578125 39.976562 18.308594 39.949219 18.039062 39.917969 L 18.039062 35.085938 C 18.308594 35.117188 18.578125 35.144531 18.851562 35.171875 L 18.851562 40.003906 " fill-opacity="1" fill-rule="nonzero"/><path fill="#e98b1b" d="M 17.464844 39.851562 C 17.191406 39.816406 16.917969 39.78125 16.648438 39.746094 L 16.648438 34.917969 C 16.917969 34.953125 17.191406 34.988281 17.464844 35.019531 L 17.464844 39.851562 " fill-opacity="1" fill-rule="nonzero"/><path fill="#e98b1b" d="M 9.136719 38.113281 C 8.855469 38.027344 8.585938 37.9375 8.320312 37.84375 L 8.320312 33.050781 C 8.585938 33.144531 8.859375 33.230469 9.136719 33.316406 L 9.136719 38.113281 " fill-opacity="1" fill-rule="nonzero"/><path fill="#e98b1b" d="M 7.671875 37.605469 C 7.417969 37.511719 7.171875 37.414062 6.929688 37.3125 L 6.929688 32.539062 C 7.195312 32.644531 7.46875 32.75 7.746094 32.851562 L 7.746094 37.527344 C 7.746094 37.554688 7.714844 37.582031 7.671875 37.605469 " fill-opacity="1" fill-rule="nonzero"/><path fill="#e98b1b" d="M 6.148438 36.972656 C 5.941406 36.878906 5.738281 36.78125 5.542969 36.679688 L 5.542969 31.933594 C 5.804688 32.058594 6.074219 32.183594 6.359375 32.304688 L 6.359375 36.851562 C 6.359375 36.902344 6.269531 36.945312 6.148438 36.972656 " fill-opacity="1" fill-rule="nonzero"/><path fill="#e98b1b" d="M 4.800781 36.289062 C 4.578125 36.160156 4.359375 36.03125 4.152344 35.902344 L 4.152344 31.183594 C 4.414062 31.339844 4.683594 31.496094 4.96875 31.644531 L 4.96875 36.175781 C 4.96875 36.222656 4.898438 36.261719 4.800781 36.289062 " fill-opacity="1" fill-rule="nonzero"/><path fill="#e98b1b" d="M 3.574219 35.507812 C 3.277344 35.296875 3.011719 35.074219 2.765625 34.847656 L 2.765625 30.21875 C 3.015625 30.425781 3.289062 30.625 3.582031 30.820312 L 3.582031 35.5 L 3.574219 35.507812 " fill-opacity="1" fill-rule="nonzero"/><path fill="#e98b1b" d="M 2.191406 34.269531 C 1.824219 33.847656 1.554688 33.410156 1.378906 32.960938 L 1.378906 28.6875 C 1.59375 29.03125 1.863281 29.371094 2.191406 29.699219 L 2.191406 34.269531 " fill-opacity="1" fill-rule="nonzero"/><path fill="#f89e19" d="M 51.386719 25.527344 L 51.386719 20.355469 L 2.167969 20.355469 L 2.167969 25.527344 C 2.167969 30.3125 13.183594 34.191406 26.777344 34.191406 C 40.367188 34.191406 51.386719 30.3125 51.386719 25.527344 " fill-opacity="1" fill-rule="nonzero"/><path fill="#f5c116" d="M 26.777344 28.640625 C 13.183594 28.640625 2.167969 24.765625 2.167969 19.976562 C 2.167969 15.191406 13.183594 11.308594 26.777344 11.308594 C 40.367188 11.308594 51.386719 15.191406 51.386719 19.976562 C 51.386719 24.765625 40.367188 28.640625 26.777344 28.640625 " fill-opacity="1" fill-rule="nonzero"/><path fill="#f89e19" d="M 28.257812 23.359375 C 29.246094 23.292969 30.046875 23.136719 30.667969 22.878906 C 31.285156 22.621094 31.59375 22.316406 31.59375 21.96875 C 31.59375 21.65625 31.335938 21.390625 30.816406 21.167969 C 30.292969 20.941406 29.445312 20.769531 28.257812 20.648438 L 28.257812 23.359375 M 25.394531 15.960938 C 24.617188 16.054688 23.996094 16.210938 23.539062 16.433594 C 23.078125 16.65625 22.847656 16.902344 22.847656 17.171875 C 22.847656 17.417969 23.058594 17.644531 23.476562 17.855469 C 23.898438 18.066406 24.535156 18.238281 25.394531 18.367188 L 25.394531 15.960938 M 25.394531 23.265625 L 25.394531 20.351562 C 22.8125 20.089844 20.921875 19.695312 19.714844 19.167969 C 18.511719 18.644531 17.910156 18.003906 17.910156 17.253906 C 17.910156 16.492188 18.589844 15.855469 19.953125 15.339844 C 21.316406 14.820312 23.128906 14.523438 25.394531 14.445312 L 25.394531 13.757812 L 28.257812 13.757812 L 28.257812 14.445312 C 30.351562 14.53125 32.011719 14.785156 33.253906 15.199219 C 34.492188 15.613281 35.28125 16.167969 35.621094 16.863281 L 30.628906 17.09375 C 30.324219 16.546875 29.535156 16.175781 28.257812 15.980469 L 28.257812 18.699219 C 31.417969 19 33.570312 19.394531 34.714844 19.871094 C 35.859375 20.351562 36.433594 20.96875 36.433594 21.71875 C 36.433594 22.558594 35.710938 23.265625 34.273438 23.839844 C 32.828125 24.414062 30.824219 24.765625 28.257812 24.898438 L 28.257812 26.199219 L 25.394531 26.199219 L 25.394531 24.933594 C 23.113281 24.835938 21.265625 24.535156 19.84375 24.035156 C 18.421875 23.53125 17.515625 22.828125 17.121094 21.914062 L 22.273438 21.71875 C 22.484375 22.089844 22.878906 22.410156 23.457031 22.679688 C 24.035156 22.945312 24.683594 23.140625 25.394531 23.265625 " fill-opacity="1" fill-rule="nonzero"/><path fill="#e98b1b" d="M 48.605469 28.996094 L 48.597656 28.988281 L 48.597656 24.308594 C 48.890625 24.109375 49.167969 23.910156 49.417969 23.707031 L 49.417969 28.339844 C 49.167969 28.5625 48.902344 28.78125 48.605469 28.996094 " fill-opacity="1" fill-rule="nonzero"/><path fill="#e98b1b" d="M 47.378906 29.773438 C 47.28125 29.75 47.210938 29.707031 47.210938 29.660156 L 47.210938 25.132812 C 47.496094 24.984375 47.769531 24.828125 48.027344 24.671875 L 48.027344 29.386719 C 47.824219 29.519531 47.605469 29.648438 47.378906 29.773438 " fill-opacity="1" fill-rule="nonzero"/><path fill="#e98b1b" d="M 49.988281 27.757812 L 49.988281 23.183594 C 50.316406 22.855469 50.589844 22.519531 50.804688 22.175781 L 50.804688 26.445312 C 50.628906 26.894531 50.355469 27.332031 49.988281 27.757812 " fill-opacity="1" fill-rule="nonzero"/><path fill="#e98b1b" d="M 46.03125 30.460938 C 45.910156 30.433594 45.820312 30.390625 45.820312 30.335938 L 45.820312 25.792969 C 46.105469 25.667969 46.375 25.546875 46.640625 25.417969 L 46.640625 30.167969 C 46.441406 30.269531 46.242188 30.363281 46.03125 30.460938 " fill-opacity="1" fill-rule="nonzero"/><path fill="#e98b1b" d="M 44.511719 31.09375 C 44.46875 31.070312 44.433594 31.042969 44.433594 31.011719 L 44.433594 26.335938 C 44.714844 26.238281 44.984375 26.132812 45.25 26.027344 L 45.25 30.800781 C 45.007812 30.898438 44.761719 30.996094 44.511719 31.09375 " fill-opacity="1" fill-rule="nonzero"/><path fill="#e98b1b" d="M 43.046875 31.601562 L 43.046875 26.800781 C 43.324219 26.71875 43.597656 26.628906 43.863281 26.539062 L 43.863281 31.328125 C 43.597656 31.421875 43.324219 31.515625 43.046875 31.601562 " fill-opacity="1" fill-rule="nonzero"/><path fill="#e98b1b" d="M 41.65625 32.007812 L 41.65625 27.207031 C 41.933594 27.132812 42.207031 27.058594 42.472656 26.976562 L 42.472656 31.777344 C 42.207031 31.855469 41.933594 31.933594 41.65625 32.007812 " fill-opacity="1" fill-rule="nonzero"/><path fill="#e98b1b" d="M 40.269531 32.367188 L 40.269531 27.550781 C 40.546875 27.488281 40.816406 27.417969 41.085938 27.351562 L 41.085938 32.160156 C 40.816406 32.230469 40.546875 32.300781 40.269531 32.367188 " fill-opacity="1" fill-rule="nonzero"/><path fill="#e98b1b" d="M 38.878906 32.667969 L 38.878906 27.847656 C 39.15625 27.792969 39.429688 27.738281 39.695312 27.679688 L 39.695312 32.492188 C 39.429688 32.554688 39.15625 32.609375 38.878906 32.667969 " fill-opacity="1" fill-rule="nonzero"/><path fill="#e98b1b" d="M 37.492188 32.929688 L 37.492188 28.105469 C 37.769531 28.058594 38.039062 28.011719 38.308594 27.960938 L 38.308594 32.78125 C 38.042969 32.832031 37.769531 32.882812 37.492188 32.929688 " fill-opacity="1" fill-rule="nonzero"/><path fill="#e98b1b" d="M 36.105469 33.152344 L 36.105469 28.324219 C 36.378906 28.285156 36.648438 28.242188 36.921875 28.199219 L 36.921875 33.027344 C 36.648438 33.070312 36.378906 33.113281 36.105469 33.152344 " fill-opacity="1" fill-rule="nonzero"/><path fill="#e98b1b" d="M 17.449219 33.152344 C 17.175781 33.113281 16.902344 33.070312 16.632812 33.027344 L 16.632812 28.199219 C 16.902344 28.242188 17.175781 28.285156 17.449219 28.324219 L 17.449219 33.152344 " fill-opacity="1" fill-rule="nonzero"/><path fill="#e98b1b" d="M 16.058594 32.929688 C 15.785156 32.882812 15.511719 32.832031 15.242188 32.78125 L 15.242188 27.960938 C 15.511719 28.011719 15.785156 28.058594 16.058594 28.105469 L 16.058594 32.929688 " fill-opacity="1" fill-rule="nonzero"/><path fill="#e98b1b" d="M 14.671875 32.667969 C 14.394531 32.609375 14.125 32.554688 13.855469 32.492188 L 13.855469 27.679688 C 14.125 27.738281 14.394531 27.792969 14.671875 27.847656 L 14.671875 32.667969 " fill-opacity="1" fill-rule="nonzero"/><path fill="#e98b1b" d="M 13.285156 32.367188 C 13.003906 32.300781 12.734375 32.230469 12.46875 32.160156 L 12.46875 27.351562 C 12.734375 27.417969 13.003906 27.488281 13.285156 27.550781 L 13.285156 32.367188 " fill-opacity="1" fill-rule="nonzero"/><path fill="#e98b1b" d="M 11.894531 32.007812 C 11.617188 31.933594 11.347656 31.855469 11.078125 31.777344 L 11.078125 26.976562 C 11.34375 27.058594 11.617188 27.132812 11.894531 27.207031 L 11.894531 32.007812 " fill-opacity="1" fill-rule="nonzero"/><path fill="#e98b1b" d="M 24.390625 33.765625 C 24.117188 33.757812 23.84375 33.742188 23.574219 33.730469 L 23.574219 28.894531 C 23.84375 28.90625 24.117188 28.921875 24.390625 28.929688 L 24.390625 33.765625 " fill-opacity="1" fill-rule="nonzero"/><path fill="#e98b1b" d="M 23.003906 33.703125 C 22.726562 33.6875 22.457031 33.671875 22.183594 33.652344 L 22.183594 28.816406 C 22.457031 28.832031 22.726562 28.855469 23.003906 28.871094 L 23.003906 33.703125 " fill-opacity="1" fill-rule="nonzero"/><path fill="#e98b1b" d="M 25.777344 33.800781 C 25.503906 33.792969 25.234375 33.789062 24.964844 33.78125 L 24.964844 28.945312 C 25.234375 28.949219 25.503906 28.957031 25.777344 28.960938 L 25.777344 33.800781 " fill-opacity="1" fill-rule="nonzero"/><path fill="#e98b1b" d="M 26.777344 33.808594 C 26.632812 33.808594 26.492188 33.804688 26.351562 33.804688 L 26.351562 28.964844 C 26.492188 28.96875 26.632812 28.972656 26.777344 28.972656 C 26.90625 28.972656 27.035156 28.96875 27.167969 28.96875 L 27.167969 33.804688 C 27.035156 33.804688 26.90625 33.808594 26.777344 33.808594 " fill-opacity="1" fill-rule="nonzero"/><path fill="#e98b1b" d="M 27.738281 33.800781 L 27.738281 28.960938 C 28.011719 28.960938 28.285156 28.953125 28.554688 28.945312 L 28.554688 33.78125 C 28.285156 33.789062 28.011719 33.792969 27.738281 33.800781 " fill-opacity="1" fill-rule="nonzero"/><path fill="#e98b1b" d="M 29.128906 33.769531 L 29.128906 28.929688 C 29.398438 28.921875 29.671875 28.910156 29.941406 28.898438 L 29.941406 33.734375 C 29.671875 33.746094 29.398438 33.757812 29.128906 33.769531 " fill-opacity="1" fill-rule="nonzero"/><path fill="#e98b1b" d="M 30.515625 33.707031 L 30.515625 28.871094 C 30.789062 28.855469 31.0625 28.835938 31.332031 28.820312 L 31.332031 33.65625 C 31.0625 33.671875 30.789062 33.691406 30.515625 33.707031 " fill-opacity="1" fill-rule="nonzero"/><path fill="#e98b1b" d="M 31.90625 33.613281 L 31.90625 28.78125 C 32.179688 28.761719 32.449219 28.738281 32.71875 28.714844 L 32.71875 33.546875 C 32.449219 33.574219 32.179688 33.59375 31.90625 33.613281 " fill-opacity="1" fill-rule="nonzero"/><path fill="#e98b1b" d="M 33.292969 33.492188 L 33.292969 28.660156 C 33.566406 28.632812 33.839844 28.609375 34.109375 28.578125 L 34.109375 33.410156 C 33.839844 33.441406 33.566406 33.46875 33.292969 33.492188 " fill-opacity="1" fill-rule="nonzero"/><path fill="#e98b1b" d="M 34.679688 33.34375 L 34.679688 28.511719 C 34.953125 28.476562 35.226562 28.445312 35.496094 28.40625 L 35.496094 33.238281 C 35.226562 33.273438 34.953125 33.308594 34.679688 33.34375 " fill-opacity="1" fill-rule="nonzero"/><path fill="#e98b1b" d="M 21.613281 33.613281 C 21.339844 33.589844 21.066406 33.570312 20.796875 33.546875 L 20.796875 28.710938 C 21.066406 28.734375 21.339844 28.757812 21.613281 28.777344 L 21.613281 33.613281 " fill-opacity="1" fill-rule="nonzero"/><path fill="#e98b1b" d="M 20.222656 33.488281 C 19.949219 33.464844 19.675781 33.4375 19.410156 33.40625 L 19.410156 28.574219 C 19.675781 28.605469 19.949219 28.628906 20.222656 28.65625 L 20.222656 33.488281 " fill-opacity="1" fill-rule="nonzero"/><path fill="#e98b1b" d="M 18.835938 33.335938 C 18.5625 33.304688 18.289062 33.269531 18.019531 33.234375 L 18.019531 28.402344 C 18.289062 28.441406 18.5625 28.472656 18.835938 28.507812 L 18.835938 33.335938 " fill-opacity="1" fill-rule="nonzero"/><path fill="#e98b1b" d="M 10.503906 31.601562 C 10.226562 31.515625 9.953125 31.421875 9.691406 31.328125 L 9.691406 26.539062 C 9.953125 26.628906 10.226562 26.71875 10.503906 26.800781 L 10.503906 31.601562 " fill-opacity="1" fill-rule="nonzero"/><path fill="#e98b1b" d="M 9.042969 31.09375 C 8.789062 30.996094 8.539062 30.898438 8.300781 30.800781 L 8.300781 26.027344 C 8.566406 26.132812 8.839844 26.238281 9.117188 26.335938 L 9.117188 31.011719 C 9.117188 31.042969 9.085938 31.070312 9.042969 31.09375 " fill-opacity="1" fill-rule="nonzero"/><path fill="#e98b1b" d="M 7.519531 30.460938 C 7.3125 30.363281 7.109375 30.269531 6.914062 30.167969 L 6.914062 25.417969 C 7.175781 25.546875 7.449219 25.667969 7.730469 25.792969 L 7.730469 30.335938 C 7.730469 30.390625 7.640625 30.433594 7.519531 30.460938 " fill-opacity="1" fill-rule="nonzero"/><path fill="#e98b1b" d="M 6.171875 29.773438 C 5.945312 29.648438 5.730469 29.519531 5.527344 29.386719 L 5.527344 24.671875 C 5.785156 24.828125 6.054688 24.984375 6.339844 25.132812 L 6.339844 29.660156 C 6.339844 29.707031 6.269531 29.75 6.171875 29.773438 " fill-opacity="1" fill-rule="nonzero"/><path fill="#e98b1b" d="M 4.945312 28.996094 C 4.648438 28.78125 4.382812 28.5625 4.136719 28.339844 L 4.136719 23.707031 C 4.386719 23.910156 4.660156 24.109375 4.953125 24.308594 L 4.953125 28.988281 L 4.945312 28.996094 " fill-opacity="1" fill-rule="nonzero"/><path fill="#e98b1b" d="M 3.566406 27.757812 C 3.199219 27.332031 2.925781 26.894531 2.75 26.445312 L 2.75 22.175781 C 2.964844 22.519531 3.234375 22.855469 3.566406 23.183594 L 3.566406 27.757812 " fill-opacity="1" fill-rule="nonzero"/><g clip-path="url(#73e5a634c9)"><path fill="#f89e19" d="M 54.769531 17.359375 L 54.769531 12.191406 L 5.550781 12.191406 L 5.550781 17.359375 C 5.550781 22.144531 16.570312 26.027344 30.160156 26.027344 C 43.75 26.027344 54.769531 22.144531 54.769531 17.359375 " fill-opacity="1" fill-rule="nonzero"/></g><g clip-path="url(#c44f3a10ba)"><path fill="#f5c116" d="M 30.160156 20.476562 C 16.570312 20.476562 5.550781 16.597656 5.550781 11.8125 C 5.550781 7.023438 16.570312 3.144531 30.160156 3.144531 C 43.75 3.144531 54.769531 7.023438 54.769531 11.8125 C 54.769531 16.597656 43.75 20.476562 30.160156 20.476562 " fill-opacity="1" fill-rule="nonzero"/></g><path fill="#f89e19" d="M 31.640625 15.195312 C 32.628906 15.128906 33.433594 14.96875 34.050781 14.710938 C 34.667969 14.453125 34.980469 14.152344 34.980469 13.804688 C 34.980469 13.492188 34.71875 13.222656 34.199219 13 C 33.679688 12.777344 32.828125 12.601562 31.640625 12.480469 Z M 28.777344 7.796875 C 28.003906 7.886719 27.382812 8.046875 26.921875 8.265625 C 26.460938 8.492188 26.230469 8.734375 26.230469 9.003906 C 26.230469 9.253906 26.441406 9.480469 26.863281 9.6875 C 27.285156 9.902344 27.921875 10.070312 28.777344 10.199219 Z M 28.777344 15.097656 L 28.777344 12.183594 C 26.199219 11.921875 24.308594 11.53125 23.097656 11.003906 C 21.898438 10.476562 21.292969 9.839844 21.292969 9.085938 C 21.292969 8.328125 21.976562 7.6875 23.339844 7.171875 C 24.699219 6.65625 26.511719 6.355469 28.777344 6.277344 L 28.777344 5.589844 L 31.640625 5.589844 L 31.640625 6.277344 C 33.734375 6.367188 35.398438 6.617188 36.636719 7.035156 C 37.875 7.445312 38.667969 8.003906 39.007812 8.699219 L 34.011719 8.929688 C 33.710938 8.378906 32.917969 8.011719 31.640625 7.816406 L 31.640625 10.535156 C 34.800781 10.835938 36.957031 11.226562 38.101562 11.707031 C 39.246094 12.1875 39.816406 12.800781 39.816406 13.554688 C 39.816406 14.394531 39.09375 15.097656 37.65625 15.671875 C 36.214844 16.25 34.207031 16.601562 31.640625 16.730469 L 31.640625 18.03125 L 28.777344 18.03125 L 28.777344 16.765625 C 26.5 16.667969 24.652344 16.371094 23.226562 15.867188 C 21.808594 15.367188 20.898438 14.660156 20.503906 13.75 L 25.65625 13.554688 C 25.867188 13.925781 26.261719 14.242188 26.84375 14.511719 C 27.421875 14.78125 28.066406 14.976562 28.777344 15.097656 " fill-opacity="1" fill-rule="nonzero"/><path fill="#e98b1b" d="M 51.988281 20.832031 L 51.980469 20.820312 L 51.980469 16.144531 C 52.273438 15.945312 52.550781 15.746094 52.800781 15.539062 L 52.800781 20.171875 C 52.554688 20.394531 52.285156 20.613281 51.988281 20.832031 " fill-opacity="1" fill-rule="nonzero"/><path fill="#e98b1b" d="M 50.765625 21.609375 C 50.664062 21.582031 50.59375 21.542969 50.59375 21.496094 L 50.59375 16.96875 C 50.882812 16.820312 51.152344 16.664062 51.414062 16.507812 L 51.414062 21.222656 C 51.207031 21.355469 50.988281 21.480469 50.765625 21.609375 " fill-opacity="1" fill-rule="nonzero"/><g clip-path="url(#c6c02f6bf7)"><path fill="#e98b1b" d="M 53.371094 19.589844 L 53.371094 15.019531 C 53.699219 14.691406 53.972656 14.355469 54.1875 14.011719 L 54.1875 18.28125 C 54.011719 18.726562 53.738281 19.167969 53.371094 19.589844 " fill-opacity="1" fill-rule="nonzero"/></g><path fill="#e98b1b" d="M 49.417969 22.296875 C 49.292969 22.269531 49.207031 22.222656 49.207031 22.171875 L 49.207031 17.625 C 49.488281 17.503906 49.757812 17.378906 50.023438 17.253906 L 50.023438 22 C 49.824219 22.101562 49.625 22.199219 49.417969 22.296875 " fill-opacity="1" fill-rule="nonzero"/><path fill="#e98b1b" d="M 47.894531 22.925781 C 47.851562 22.902344 47.820312 22.878906 47.820312 22.847656 L 47.820312 18.171875 C 48.097656 18.070312 48.371094 17.964844 48.632812 17.859375 L 48.632812 22.632812 C 48.394531 22.734375 48.148438 22.832031 47.894531 22.925781 " fill-opacity="1" fill-rule="nonzero"/><path fill="#e98b1b" d="M 46.429688 23.4375 L 46.429688 18.636719 C 46.707031 18.550781 46.980469 18.464844 47.246094 18.371094 L 47.246094 23.164062 C 46.980469 23.257812 46.707031 23.347656 46.429688 23.4375 " fill-opacity="1" fill-rule="nonzero"/><path fill="#e98b1b" d="M 45.042969 23.84375 L 45.042969 19.039062 C 45.316406 18.964844 45.589844 18.890625 45.855469 18.8125 L 45.855469 23.609375 C 45.589844 23.691406 45.320312 23.769531 45.042969 23.84375 " fill-opacity="1" fill-rule="nonzero"/><path fill="#e98b1b" d="M 43.652344 24.199219 L 43.652344 19.386719 C 43.929688 19.320312 44.199219 19.253906 44.46875 19.1875 L 44.46875 23.996094 C 44.199219 24.066406 43.929688 24.132812 43.652344 24.199219 " fill-opacity="1" fill-rule="nonzero"/><path fill="#e98b1b" d="M 42.265625 24.5 L 42.265625 19.683594 C 42.539062 19.628906 42.8125 19.574219 43.082031 19.511719 L 43.082031 24.328125 C 42.8125 24.390625 42.539062 24.445312 42.265625 24.5 " fill-opacity="1" fill-rule="nonzero"/><path fill="#e98b1b" d="M 40.878906 24.765625 L 40.878906 19.941406 C 41.152344 19.894531 41.421875 19.84375 41.691406 19.792969 L 41.691406 24.617188 C 41.425781 24.667969 41.148438 24.71875 40.878906 24.765625 " fill-opacity="1" fill-rule="nonzero"/><path fill="#e98b1b" d="M 39.488281 24.988281 L 39.488281 20.160156 C 39.761719 20.117188 40.035156 20.078125 40.304688 20.035156 L 40.304688 24.859375 C 40.035156 24.902344 39.761719 24.945312 39.488281 24.988281 " fill-opacity="1" fill-rule="nonzero"/><path fill="#e98b1b" d="M 20.832031 24.988281 C 20.558594 24.945312 20.285156 24.902344 20.015625 24.859375 L 20.015625 20.035156 C 20.285156 20.078125 20.558594 20.117188 20.832031 20.160156 L 20.832031 24.988281 " fill-opacity="1" fill-rule="nonzero"/><path fill="#e98b1b" d="M 19.441406 24.765625 C 19.167969 24.71875 18.894531 24.667969 18.628906 24.617188 L 18.628906 19.792969 C 18.898438 19.84375 19.167969 19.894531 19.441406 19.941406 L 19.441406 24.765625 " fill-opacity="1" fill-rule="nonzero"/><path fill="#e98b1b" d="M 18.054688 24.5 C 17.78125 24.445312 17.507812 24.390625 17.238281 24.328125 L 17.238281 19.511719 C 17.507812 19.574219 17.78125 19.628906 18.054688 19.683594 L 18.054688 24.5 " fill-opacity="1" fill-rule="nonzero"/><path fill="#e98b1b" d="M 16.667969 24.199219 C 16.390625 24.132812 16.117188 24.066406 15.851562 23.996094 L 15.851562 19.1875 C 16.117188 19.253906 16.390625 19.320312 16.667969 19.386719 L 16.667969 24.199219 " fill-opacity="1" fill-rule="nonzero"/><path fill="#e98b1b" d="M 15.277344 23.84375 C 15 23.769531 14.730469 23.691406 14.464844 23.609375 L 14.464844 18.8125 C 14.730469 18.890625 15.003906 18.964844 15.277344 19.039062 L 15.277344 23.84375 " fill-opacity="1" fill-rule="nonzero"/><path fill="#e98b1b" d="M 27.773438 25.601562 C 27.5 25.589844 27.230469 25.578125 26.957031 25.566406 L 26.957031 20.730469 C 27.230469 20.742188 27.5 20.753906 27.773438 20.761719 L 27.773438 25.601562 " fill-opacity="1" fill-rule="nonzero"/><path fill="#e98b1b" d="M 26.386719 25.539062 C 26.113281 25.523438 25.839844 25.507812 25.570312 25.488281 L 25.570312 20.652344 C 25.839844 20.667969 26.113281 20.6875 26.386719 20.703125 L 26.386719 25.539062 " fill-opacity="1" fill-rule="nonzero"/><path fill="#e98b1b" d="M 29.164062 25.632812 C 28.890625 25.628906 28.617188 25.625 28.347656 25.617188 L 28.347656 20.78125 C 28.617188 20.785156 28.890625 20.789062 29.164062 20.796875 L 29.164062 25.632812 " fill-opacity="1" fill-rule="nonzero"/><path fill="#e98b1b" d="M 30.160156 25.644531 C 30.019531 25.644531 29.878906 25.640625 29.734375 25.640625 L 29.734375 20.800781 C 29.878906 20.800781 30.019531 20.804688 30.160156 20.804688 C 30.292969 20.804688 30.421875 20.800781 30.550781 20.800781 L 30.550781 25.640625 C 30.421875 25.640625 30.292969 25.644531 30.160156 25.644531 " fill-opacity="1" fill-rule="nonzero"/><path fill="#e98b1b" d="M 31.125 25.632812 L 31.125 20.796875 C 31.398438 20.792969 31.667969 20.785156 31.941406 20.78125 L 31.941406 25.617188 C 31.667969 25.625 31.398438 25.628906 31.125 25.632812 " fill-opacity="1" fill-rule="nonzero"/><path fill="#e98b1b" d="M 32.511719 25.601562 L 32.511719 20.765625 C 32.785156 20.753906 33.054688 20.742188 33.328125 20.730469 L 33.328125 25.566406 C 33.054688 25.578125 32.785156 25.59375 32.511719 25.601562 " fill-opacity="1" fill-rule="nonzero"/><path fill="#e98b1b" d="M 33.898438 25.539062 L 33.898438 20.707031 C 34.175781 20.691406 34.445312 20.671875 34.714844 20.652344 L 34.714844 25.488281 C 34.445312 25.507812 34.175781 25.527344 33.898438 25.539062 " fill-opacity="1" fill-rule="nonzero"/><path fill="#e98b1b" d="M 35.289062 25.449219 L 35.289062 20.613281 C 35.5625 20.59375 35.832031 20.570312 36.105469 20.546875 L 36.105469 25.382812 C 35.835938 25.40625 35.5625 25.429688 35.289062 25.449219 " fill-opacity="1" fill-rule="nonzero"/><path fill="#e98b1b" d="M 36.675781 25.328125 L 36.675781 20.496094 C 36.949219 20.46875 37.226562 20.441406 37.492188 20.414062 L 37.492188 25.246094 C 37.226562 25.277344 36.949219 25.300781 36.675781 25.328125 " fill-opacity="1" fill-rule="nonzero"/><path fill="#e98b1b" d="M 38.066406 25.175781 L 38.066406 20.347656 C 38.339844 20.3125 38.613281 20.277344 38.878906 20.242188 L 38.878906 25.070312 C 38.613281 25.109375 38.339844 25.140625 38.066406 25.175781 " fill-opacity="1" fill-rule="nonzero"/><path fill="#e98b1b" d="M 24.996094 25.445312 C 24.722656 25.425781 24.453125 25.402344 24.179688 25.378906 L 24.179688 20.546875 C 24.453125 20.570312 24.722656 20.59375 24.996094 20.613281 L 24.996094 25.445312 " fill-opacity="1" fill-rule="nonzero"/><path fill="#e98b1b" d="M 23.609375 25.324219 C 23.335938 25.300781 23.0625 25.269531 22.792969 25.242188 L 22.792969 20.410156 C 23.0625 20.4375 23.335938 20.464844 23.609375 20.492188 L 23.609375 25.324219 " fill-opacity="1" fill-rule="nonzero"/><path fill="#e98b1b" d="M 22.21875 25.171875 C 21.945312 25.136719 21.675781 25.101562 21.40625 25.066406 L 21.40625 20.238281 C 21.675781 20.277344 21.945312 20.308594 22.21875 20.339844 L 22.21875 25.171875 " fill-opacity="1" fill-rule="nonzero"/><path fill="#e98b1b" d="M 13.890625 23.4375 C 13.613281 23.347656 13.339844 23.257812 13.074219 23.164062 L 13.074219 18.371094 C 13.339844 18.464844 13.613281 18.550781 13.890625 18.636719 L 13.890625 23.4375 " fill-opacity="1" fill-rule="nonzero"/><path fill="#e98b1b" d="M 12.425781 22.925781 C 12.171875 22.832031 11.925781 22.734375 11.6875 22.632812 L 11.6875 17.859375 C 11.953125 17.964844 12.222656 18.070312 12.5 18.171875 L 12.5 22.847656 C 12.5 22.878906 12.46875 22.902344 12.425781 22.925781 " fill-opacity="1" fill-rule="nonzero"/><path fill="#e98b1b" d="M 10.90625 22.296875 C 10.695312 22.199219 10.496094 22.101562 10.296875 22 L 10.296875 17.253906 C 10.558594 17.378906 10.832031 17.503906 11.113281 17.625 L 11.113281 22.171875 C 11.113281 22.222656 11.027344 22.269531 10.90625 22.296875 " fill-opacity="1" fill-rule="nonzero"/><path fill="#e98b1b" d="M 9.554688 21.609375 C 9.332031 21.480469 9.113281 21.355469 8.910156 21.222656 L 8.910156 16.507812 C 9.167969 16.664062 9.4375 16.820312 9.726562 16.96875 L 9.726562 21.496094 C 9.726562 21.542969 9.65625 21.582031 9.554688 21.609375 " fill-opacity="1" fill-rule="nonzero"/><path fill="#e98b1b" d="M 8.332031 20.832031 C 8.035156 20.613281 7.765625 20.394531 7.519531 20.171875 L 7.519531 15.539062 C 7.769531 15.746094 8.046875 15.945312 8.339844 16.144531 L 8.339844 20.820312 L 8.332031 20.832031 " fill-opacity="1" fill-rule="nonzero"/><path fill="#e98b1b" d="M 6.949219 19.589844 C 6.582031 19.167969 6.308594 18.730469 6.132812 18.28125 L 6.132812 14.011719 C 6.347656 14.355469 6.621094 14.691406 6.949219 15.019531 L 6.949219 19.589844 " fill-opacity="1" fill-rule="nonzero"/></svg>